<svg xmlns="http://www.w3.org/2000/svg" viewBox="0 0 375 1480" width="375" height="1480">
  <defs>
    <style>
      .text-primary   { fill: #212121; font-family: -apple-system, BlinkMacSystemFont, 'Segoe UI', sans-serif; }
      .text-secondary  { fill: #616161; font-family: -apple-system, BlinkMacSystemFont, 'Segoe UI', sans-serif; }
      .text-tertiary   { fill: #9E9E9E; font-family: -apple-system, BlinkMacSystemFont, 'Segoe UI', sans-serif; }
      .text-inverse    { fill: #FFFFFF; font-family: -apple-system, BlinkMacSystemFont, 'Segoe UI', sans-serif; }
    </style>
  </defs>

  <!-- Background -->
  <rect width="375" height="1480" fill="#F5F5F5"/>

  <!-- ==================== TOP BAR ==================== -->
  <rect width="375" height="56" fill="#FFFFFF" stroke="#E0E0E0" stroke-width="1" y="0"/>

  <!-- Wordmark: tkr-deploy -->
  <text x="16" y="35" class="text-primary" font-size="17" font-weight="700" letter-spacing="-0.3">tkr-deploy</text>

  <!-- Vault status indicator (right side) -->
  <!-- Lock icon unlocked -->
  <g transform="translate(270, 18)">
    <rect x="0" y="7" width="16" height="12" rx="2" fill="none" stroke="#616161" stroke-width="1.5"/>
    <path d="M3,7 L3,3 Q3,0 8,0 Q13,0 13,3" fill="none" stroke="#616161" stroke-width="1.5" stroke-linecap="round"/>
    <circle cx="8" cy="13" r="2" fill="#616161"/>
  </g>
  <text x="292" y="31" class="text-secondary" font-size="11">tkr-secrets</text>
  <!-- status dot: unlocked = dark -->
  <circle cx="262" cy="28" r="4" fill="#212121"/>

  <!-- ==================== PILL NAV BAR ==================== -->
  <rect y="56" width="375" height="44" fill="#FFFFFF" stroke="#E0E0E0" stroke-width="1"/>

  <!-- Overview pill (inactive) -->
  <text x="12" y="83" class="text-secondary" font-size="12">Overview</text>

  <!-- Secrets pill (active) -->
  <g transform="translate(75, 68)">
    <rect width="62" height="24" rx="12" fill="#424242"/>
    <text x="31" y="16.5" text-anchor="middle" class="text-inverse" font-size="12" font-weight="500">Secrets</text>
  </g>

  <!-- Database pill (inactive) -->
  <text x="149" y="83" class="text-secondary" font-size="12">Database</text>

  <!-- Frontend pill (inactive) -->
  <text x="213" y="83" class="text-secondary" font-size="12">Frontend</text>

  <!-- Email pill (inactive) -->
  <text x="277" y="83" class="text-secondary" font-size="12">Email</text>

  <!-- CI/CD partially visible -->
  <text x="323" y="83" class="text-secondary" font-size="12">CI/</text>

  <!-- ==================== VAULT STATUS BANNER ==================== -->
  <!-- Card: vault unlocked, 12 secrets, 4 groups -->
  <g transform="translate(12, 116)">
    <rect width="351" height="80" rx="8" fill="#FFFFFF" stroke="#E5E4E0" stroke-width="1"/>

    <!-- Vault name + lock icon row -->
    <!-- Lock icon (unlocked state) -->
    <g transform="translate(16, 14)">
      <rect x="0" y="7" width="14" height="10" rx="2" fill="none" stroke="#212121" stroke-width="1.5"/>
      <path d="M2,7 L2,3 Q2,0 7,0 Q12,0 12,3" fill="none" stroke="#212121" stroke-width="1.5" stroke-linecap="round"/>
      <circle cx="7" cy="12" r="1.5" fill="#212121"/>
    </g>
    <text x="36" y="26" class="text-primary" font-size="13" font-weight="600">tkr-secrets vault</text>
    <!-- Unlocked badge -->
    <rect x="234" y="14" width="62" height="18" rx="9" fill="#E0E0E0"/>
    <text x="265" y="26" text-anchor="middle" class="text-primary" font-size="10" font-weight="600">Unlocked</text>

    <!-- Divider -->
    <line x1="16" y1="42" x2="335" y2="42" stroke="#E0E0E0" stroke-width="1"/>

    <!-- Stats row -->
    <text x="16" y="62" class="text-tertiary" font-size="10" letter-spacing="0.3">SECRETS</text>
    <text x="64" y="62" class="text-primary" font-size="11" font-weight="600">12</text>

    <text x="100" y="62" class="text-tertiary" font-size="10" letter-spacing="0.3">GROUPS</text>
    <text x="148" y="62" class="text-primary" font-size="11" font-weight="600">4</text>

    <!-- Link to tkr-secrets UI -->
    <text x="224" y="62" class="text-secondary" font-size="11">Open vault</text>
    <line x1="224" y1="64" x2="291" y2="64" stroke="#616161" stroke-width="1"/>
    <!-- external link chevron indicator -->
    <text x="294" y="62" class="text-tertiary" font-size="10">↗</text>
  </g>

  <!-- ==================== SYNC SUMMARY BAR ==================== -->
  <g transform="translate(12, 208)">
    <rect width="351" height="56" rx="8" fill="#FFFFFF" stroke="#E5E4E0" stroke-width="1"/>

    <!-- Stats: 12 secrets | 3 out of sync | 2 missing -->
    <text x="16" y="24" class="text-primary" font-size="12" font-weight="600">12</text>
    <text x="28" y="24" class="text-tertiary" font-size="11">secrets</text>

    <!-- Divider dot -->
    <circle cx="80" cy="20" r="2" fill="#E0E0E0"/>

    <text x="90" y="24" class="text-primary" font-size="12" font-weight="600">3</text>
    <text x="100" y="24" class="text-tertiary" font-size="11">out of sync</text>

    <!-- Divider dot -->
    <circle cx="168" cy="20" r="2" fill="#E0E0E0"/>

    <text x="178" y="24" class="text-primary" font-size="12" font-weight="600">2</text>
    <text x="188" y="24" class="text-tertiary" font-size="11">missing</text>

    <!-- Sync All button -->
    <g transform="translate(256, 12)">
      <rect width="79" height="32" rx="6" fill="#212121"/>
      <text x="39.5" y="20.5" text-anchor="middle" class="text-inverse" font-size="12" font-weight="500">Sync All</text>
    </g>

    <!-- Last synced note -->
    <text x="16" y="44" class="text-tertiary" font-size="10">Last synced: today at 14:21 UTC</text>
  </g>

  <!-- ==================== TARGET FILTER PILLS ==================== -->
  <g transform="translate(12, 280)">
    <!-- All pill (active) -->
    <rect width="36" height="22" rx="11" fill="#424242"/>
    <text x="18" y="15.5" text-anchor="middle" class="text-inverse" font-size="11" font-weight="500">All</text>

    <!-- Supabase pill (inactive) -->
    <text x="50" y="15" class="text-secondary" font-size="11">Supabase</text>

    <!-- Vercel pill (inactive) -->
    <text x="116" y="15" class="text-secondary" font-size="11">Vercel</text>

    <!-- GitHub pill (inactive) -->
    <text x="160" y="15" class="text-secondary" font-size="11">GitHub</text>
  </g>

  <!-- ==================== SECRETS CARD LIST ==================== -->
  <!-- Each secret is a card. Rows with missing/differs get #212121 left border. -->

  <!-- SECRET 1: RESEND_API_KEY — missing GitHub — left border -->
  <g transform="translate(12, 316)">
    <!-- Left border accent: action needed -->
    <rect width="4" height="120" rx="2" fill="#212121"/>
    <rect x="4" width="347" height="120" rx="8" fill="#FFFFFF" stroke="#E5E4E0" stroke-width="1"/>
    <!-- Note: left border overlaps for visual effect -->

    <!-- Secret name -->
    <text x="18" y="22" class="text-primary" font-size="13" font-weight="600">RESEND_API_KEY</text>

    <!-- Vault preview value -->
    <text x="18" y="40" class="text-tertiary" font-size="10" letter-spacing="0.3">VAULT VALUE</text>
    <text x="86" y="40" class="text-secondary" font-size="11" font-family="monospace">re_abc...</text>

    <!-- Divider -->
    <line x1="18" y1="50" x2="335" y2="50" stroke="#E0E0E0" stroke-width="1"/>

    <!-- Target status rows -->
    <!-- Supabase: synced (checkmark) -->
    <text x="18" y="68" class="text-tertiary" font-size="10">Supabase</text>
    <!-- checkmark icon -->
    <path d="M100,60 L103,63 L109,57" fill="none" stroke="#9E9E9E" stroke-width="1.5" stroke-linecap="round" stroke-linejoin="round"/>
    <text x="114" y="68" class="text-tertiary" font-size="10">synced</text>

    <!-- Vercel: synced (checkmark) -->
    <text x="18" y="86" class="text-tertiary" font-size="10">Vercel</text>
    <path d="M100,78 L103,81 L109,75" fill="none" stroke="#9E9E9E" stroke-width="1.5" stroke-linecap="round" stroke-linejoin="round"/>
    <text x="114" y="86" class="text-tertiary" font-size="10">synced</text>

    <!-- GitHub: missing (X) -->
    <text x="18" y="104" class="text-tertiary" font-size="10">GitHub</text>
    <!-- X icon -->
    <path d="M100,96 L108,104 M108,96 L100,104" fill="none" stroke="#212121" stroke-width="1.5" stroke-linecap="round"/>
    <text x="114" y="104" class="text-primary" font-size="10" font-weight="500">missing</text>

    <!-- Sync button for this secret -->
    <g transform="translate(270, 90)">
      <rect width="65" height="26" rx="6" fill="#212121"/>
      <text x="32.5" y="17" text-anchor="middle" class="text-inverse" font-size="11" font-weight="500">Sync</text>
    </g>
  </g>

  <!-- SECRET 2: OPENAI_API_KEY — missing Supabase + GitHub — left border -->
  <g transform="translate(12, 448)">
    <rect width="4" height="120" rx="2" fill="#212121"/>
    <rect x="4" width="347" height="120" rx="8" fill="#FFFFFF" stroke="#E5E4E0" stroke-width="1"/>

    <text x="18" y="22" class="text-primary" font-size="13" font-weight="600">OPENAI_API_KEY</text>

    <text x="18" y="40" class="text-tertiary" font-size="10" letter-spacing="0.3">VAULT VALUE</text>
    <text x="86" y="40" class="text-secondary" font-size="11" font-family="monospace">sk-proj...</text>

    <line x1="18" y1="50" x2="335" y2="50" stroke="#E0E0E0" stroke-width="1"/>

    <!-- Supabase: missing -->
    <text x="18" y="68" class="text-tertiary" font-size="10">Supabase</text>
    <path d="M100,60 L108,68 M108,60 L100,68" fill="none" stroke="#212121" stroke-width="1.5" stroke-linecap="round"/>
    <text x="114" y="68" class="text-primary" font-size="10" font-weight="500">missing</text>

    <!-- Vercel: not applicable (dash) -->
    <text x="18" y="86" class="text-tertiary" font-size="10">Vercel</text>
    <line x1="100" y1="82" x2="110" y2="82" stroke="#9E9E9E" stroke-width="1.5"/>
    <text x="114" y="86" class="text-tertiary" font-size="10">n/a</text>

    <!-- GitHub: missing -->
    <text x="18" y="104" class="text-tertiary" font-size="10">GitHub</text>
    <path d="M100,96 L108,104 M108,96 L100,104" fill="none" stroke="#212121" stroke-width="1.5" stroke-linecap="round"/>
    <text x="114" y="104" class="text-primary" font-size="10" font-weight="500">missing</text>

    <g transform="translate(270, 90)">
      <rect width="65" height="26" rx="6" fill="#212121"/>
      <text x="32.5" y="17" text-anchor="middle" class="text-inverse" font-size="11" font-weight="500">Sync</text>
    </g>
  </g>

  <!-- SECRET 3: VITE_SUPABASE_URL — fully synced — no left border -->
  <g transform="translate(12, 580)">
    <rect width="351" height="120" rx="8" fill="#FFFFFF" stroke="#E5E4E0" stroke-width="1"/>

    <text x="16" y="22" class="text-primary" font-size="13" font-weight="600">VITE_SUPABASE_URL</text>

    <text x="16" y="40" class="text-tertiary" font-size="10" letter-spacing="0.3">VAULT VALUE</text>
    <text x="84" y="40" class="text-secondary" font-size="11" font-family="monospace">https://...</text>

    <line x1="16" y1="50" x2="335" y2="50" stroke="#E0E0E0" stroke-width="1"/>

    <!-- Supabase: not applicable (dash) -->
    <text x="16" y="68" class="text-tertiary" font-size="10">Supabase</text>
    <line x1="98" y1="64" x2="108" y2="64" stroke="#9E9E9E" stroke-width="1.5"/>
    <text x="112" y="68" class="text-tertiary" font-size="10">n/a</text>

    <!-- Vercel: synced -->
    <text x="16" y="86" class="text-tertiary" font-size="10">Vercel</text>
    <path d="M98,78 L101,81 L107,75" fill="none" stroke="#9E9E9E" stroke-width="1.5" stroke-linecap="round" stroke-linejoin="round"/>
    <text x="112" y="86" class="text-tertiary" font-size="10">synced</text>

    <!-- GitHub: synced -->
    <text x="16" y="104" class="text-tertiary" font-size="10">GitHub</text>
    <path d="M98,96 L101,99 L107,93" fill="none" stroke="#9E9E9E" stroke-width="1.5" stroke-linecap="round" stroke-linejoin="round"/>
    <text x="112" y="104" class="text-tertiary" font-size="10">synced</text>

    <!-- Fully synced label (no button) -->
    <g transform="translate(258, 90)">
      <rect width="77" height="26" rx="13" fill="#E0E0E0"/>
      <text x="38.5" y="17" text-anchor="middle" class="text-secondary" font-size="11" font-weight="500">synced</text>
    </g>
  </g>

  <!-- SECRET 4: SUPABASE_ACCESS_TOKEN — missing GitHub — left border -->
  <g transform="translate(12, 712)">
    <rect width="4" height="120" rx="2" fill="#212121"/>
    <rect x="4" width="347" height="120" rx="8" fill="#FFFFFF" stroke="#E5E4E0" stroke-width="1"/>

    <text x="18" y="22" class="text-primary" font-size="13" font-weight="600">SUPABASE_ACCESS_TOKEN</text>

    <text x="18" y="40" class="text-tertiary" font-size="10" letter-spacing="0.3">VAULT VALUE</text>
    <text x="86" y="40" class="text-secondary" font-size="11" font-family="monospace">sbp_...</text>

    <line x1="18" y1="50" x2="335" y2="50" stroke="#E0E0E0" stroke-width="1"/>

    <!-- Supabase: not applicable -->
    <text x="18" y="68" class="text-tertiary" font-size="10">Supabase</text>
    <line x1="100" y1="64" x2="110" y2="64" stroke="#9E9E9E" stroke-width="1.5"/>
    <text x="114" y="68" class="text-tertiary" font-size="10">n/a</text>

    <!-- Vercel: not applicable -->
    <text x="18" y="86" class="text-tertiary" font-size="10">Vercel</text>
    <line x1="100" y1="82" x2="110" y2="82" stroke="#9E9E9E" stroke-width="1.5"/>
    <text x="114" y="86" class="text-tertiary" font-size="10">n/a</text>

    <!-- GitHub: missing -->
    <text x="18" y="104" class="text-tertiary" font-size="10">GitHub</text>
    <path d="M100,96 L108,104 M108,96 L100,104" fill="none" stroke="#212121" stroke-width="1.5" stroke-linecap="round"/>
    <text x="114" y="104" class="text-primary" font-size="10" font-weight="500">missing</text>

    <g transform="translate(270, 90)">
      <rect width="65" height="26" rx="6" fill="#212121"/>
      <text x="32.5" y="17" text-anchor="middle" class="text-inverse" font-size="11" font-weight="500">Sync</text>
    </g>
  </g>

  <!-- SECRET 5: VITE_SUPABASE_ANON_KEY — synced everywhere — no border -->
  <g transform="translate(12, 844)">
    <rect width="351" height="120" rx="8" fill="#FFFFFF" stroke="#E5E4E0" stroke-width="1"/>

    <text x="16" y="22" class="text-primary" font-size="13" font-weight="600">VITE_SUPABASE_ANON_KEY</text>

    <text x="16" y="40" class="text-tertiary" font-size="10" letter-spacing="0.3">VAULT VALUE</text>
    <text x="84" y="40" class="text-secondary" font-size="11" font-family="monospace">eyJhb...</text>

    <line x1="16" y1="50" x2="335" y2="50" stroke="#E0E0E0" stroke-width="1"/>

    <!-- Supabase: not applicable -->
    <text x="16" y="68" class="text-tertiary" font-size="10">Supabase</text>
    <line x1="98" y1="64" x2="108" y2="64" stroke="#9E9E9E" stroke-width="1.5"/>
    <text x="112" y="68" class="text-tertiary" font-size="10">n/a</text>

    <!-- Vercel: synced -->
    <text x="16" y="86" class="text-tertiary" font-size="10">Vercel</text>
    <path d="M98,78 L101,81 L107,75" fill="none" stroke="#9E9E9E" stroke-width="1.5" stroke-linecap="round" stroke-linejoin="round"/>
    <text x="112" y="86" class="text-tertiary" font-size="10">synced</text>

    <!-- GitHub: synced -->
    <text x="16" y="104" class="text-tertiary" font-size="10">GitHub</text>
    <path d="M98,96 L101,99 L107,93" fill="none" stroke="#9E9E9E" stroke-width="1.5" stroke-linecap="round" stroke-linejoin="round"/>
    <text x="112" y="104" class="text-tertiary" font-size="10">synced</text>

    <g transform="translate(258, 90)">
      <rect width="77" height="26" rx="13" fill="#E0E0E0"/>
      <text x="38.5" y="17" text-anchor="middle" class="text-secondary" font-size="11" font-weight="500">synced</text>
    </g>
  </g>

  <!-- SECRET 6: DATABASE_URL — differs in Supabase — left border -->
  <g transform="translate(12, 976)">
    <rect width="4" height="120" rx="2" fill="#212121"/>
    <rect x="4" width="347" height="120" rx="8" fill="#FFFFFF" stroke="#E5E4E0" stroke-width="1"/>

    <text x="18" y="22" class="text-primary" font-size="13" font-weight="600">DATABASE_URL</text>

    <text x="18" y="40" class="text-tertiary" font-size="10" letter-spacing="0.3">VAULT VALUE</text>
    <text x="86" y="40" class="text-secondary" font-size="11" font-family="monospace">postgres://...</text>

    <line x1="18" y1="50" x2="335" y2="50" stroke="#E0E0E0" stroke-width="1"/>

    <!-- Supabase: differs -->
    <text x="18" y="68" class="text-tertiary" font-size="10">Supabase</text>
    <!-- tilde icon for differs -->
    <text x="100" y="68" class="text-primary" font-size="13" font-weight="700">~</text>
    <text x="114" y="68" class="text-primary" font-size="10" font-weight="500">differs</text>

    <!-- Vercel: not applicable -->
    <text x="18" y="86" class="text-tertiary" font-size="10">Vercel</text>
    <line x1="100" y1="82" x2="110" y2="82" stroke="#9E9E9E" stroke-width="1.5"/>
    <text x="114" y="86" class="text-tertiary" font-size="10">n/a</text>

    <!-- GitHub: not applicable -->
    <text x="18" y="104" class="text-tertiary" font-size="10">GitHub</text>
    <line x1="100" y1="100" x2="110" y2="100" stroke="#9E9E9E" stroke-width="1.5"/>
    <text x="114" y="104" class="text-tertiary" font-size="10">n/a</text>

    <g transform="translate(270, 90)">
      <rect width="65" height="26" rx="6" fill="#212121"/>
      <text x="32.5" y="17" text-anchor="middle" class="text-inverse" font-size="11" font-weight="500">Sync</text>
    </g>
  </g>

  <!-- ==================== MORE SECRETS LABEL ==================== -->
  <text x="187.5" y="1128" text-anchor="middle" class="text-tertiary" font-size="11">Showing 6 of 12 secrets</text>
  <text x="187.5" y="1148" text-anchor="middle" class="text-secondary" font-size="11">Show all secrets</text>
  <line x1="142" y1="1151" x2="234" y2="1151" stroke="#616161" stroke-width="1"/>

  <!-- ==================== LEGEND ==================== -->
  <g transform="translate(12, 1172)">
    <rect width="351" height="80" rx="8" fill="#FFFFFF" stroke="#E5E4E0" stroke-width="1"/>
    <text x="16" y="22" class="text-tertiary" font-size="10" font-weight="600" letter-spacing="0.4">STATUS LEGEND</text>

    <!-- Synced -->
    <path d="M16,38 L19,41 L25,35" fill="none" stroke="#9E9E9E" stroke-width="1.5" stroke-linecap="round" stroke-linejoin="round"/>
    <text x="30" y="40" class="text-secondary" font-size="11">Synced</text>

    <!-- Missing -->
    <path d="M100,32 L108,40 M108,32 L100,40" fill="none" stroke="#212121" stroke-width="1.5" stroke-linecap="round"/>
    <text x="114" y="40" class="text-primary" font-size="11">Missing</text>

    <!-- Differs -->
    <text x="176" y="40" class="text-primary" font-size="13" font-weight="700">~</text>
    <text x="190" y="40" class="text-secondary" font-size="11">Differs</text>

    <!-- N/A -->
    <line x1="240" y1="36" x2="250" y2="36" stroke="#9E9E9E" stroke-width="1.5"/>
    <text x="256" y="40" class="text-tertiary" font-size="11">Not applicable</text>

    <!-- Left border note -->
    <rect x="16" y="52" width="4" height="16" rx="2" fill="#212121"/>
    <text x="24" y="63" class="text-tertiary" font-size="10">Dark left border = action needed</text>
  </g>

</svg>
