<svg xmlns="http://www.w3.org/2000/svg" viewBox="0 0 1280 1060" width="1280" height="1060">
  <defs>
    <style>
      .text-primary   { fill: #212121; font-family: -apple-system, BlinkMacSystemFont, 'Segoe UI', sans-serif; }
      .text-secondary  { fill: #616161; font-family: -apple-system, BlinkMacSystemFont, 'Segoe UI', sans-serif; }
      .text-tertiary   { fill: #9E9E9E; font-family: -apple-system, BlinkMacSystemFont, 'Segoe UI', sans-serif; }
      .text-inverse    { fill: #FFFFFF; font-family: -apple-system, BlinkMacSystemFont, 'Segoe UI', sans-serif; }
    </style>
  </defs>

  <!-- Background -->
  <rect width="1280" height="1060" fill="#F5F5F5"/>

  <!-- ==================== TOP BAR ==================== -->
  <rect width="1280" height="64" fill="#FFFFFF" stroke="#E0E0E0" stroke-width="1"/>

  <!-- Wordmark -->
  <text x="32" y="40" class="text-primary" font-size="18" font-weight="700" letter-spacing="-0.3">tkr-deploy</text>

  <!-- Vault status right side -->
  <g transform="translate(1160, 22)">
    <rect x="0" y="7" width="16" height="12" rx="2" fill="none" stroke="#616161" stroke-width="1.5"/>
    <path d="M3,7 L3,3 Q3,0 8,0 Q13,0 13,3" fill="none" stroke="#616161" stroke-width="1.5" stroke-linecap="round"/>
    <circle cx="8" cy="13" r="2" fill="#616161"/>
  </g>
  <circle cx="1152" cy="32" r="5" fill="#212121"/>
  <text x="1182" y="36" class="text-secondary" font-size="13">tkr-secrets · Unlocked</text>

  <!-- ==================== PILL NAV BAR ==================== -->
  <rect y="64" width="1280" height="48" fill="#FFFFFF" stroke="#E0E0E0" stroke-width="1"/>

  <!-- Overview (inactive) -->
  <text x="32" y="93" class="text-secondary" font-size="13">Overview</text>

  <!-- Secrets (active pill) -->
  <g transform="translate(108, 76)">
    <rect width="70" height="26" rx="13" fill="#424242"/>
    <text x="35" y="18" text-anchor="middle" class="text-inverse" font-size="13" font-weight="500">Secrets</text>
  </g>

  <text x="196" y="93" class="text-secondary" font-size="13">Database</text>
  <text x="270" y="93" class="text-secondary" font-size="13">Frontend</text>
  <text x="344" y="93" class="text-secondary" font-size="13">Email</text>
  <text x="398" y="93" class="text-secondary" font-size="13">CI/CD</text>

  <!-- ==================== VAULT STATUS BANNER ==================== -->
  <g transform="translate(32, 132)">
    <rect width="1216" height="72" rx="8" fill="#FFFFFF" stroke="#E5E4E0" stroke-width="1"/>

    <!-- Lock icon -->
    <g transform="translate(20, 22)">
      <rect x="0" y="7" width="16" height="12" rx="2" fill="none" stroke="#212121" stroke-width="1.5"/>
      <path d="M3,7 L3,3 Q3,0 8,0 Q13,0 13,3" fill="none" stroke="#212121" stroke-width="1.5" stroke-linecap="round"/>
      <circle cx="8" cy="13" r="2" fill="#212121"/>
    </g>
    <text x="44" y="40" class="text-primary" font-size="15" font-weight="600">tkr-secrets vault</text>

    <!-- Unlocked badge -->
    <rect x="216" y="28" width="72" height="20" rx="10" fill="#E0E0E0"/>
    <text x="252" y="42" text-anchor="middle" class="text-primary" font-size="11" font-weight="600">Unlocked</text>

    <!-- Vertical divider -->
    <line x1="700" y1="16" x2="700" y2="56" stroke="#E0E0E0" stroke-width="1"/>

    <!-- Stats right section -->
    <text x="720" y="30" class="text-tertiary" font-size="11" letter-spacing="0.3">SECRETS</text>
    <text x="784" y="30" class="text-primary" font-size="13" font-weight="600">12</text>

    <text x="830" y="30" class="text-tertiary" font-size="11" letter-spacing="0.3">GROUPS</text>
    <text x="894" y="30" class="text-primary" font-size="13" font-weight="600">4</text>

    <text x="720" y="54" class="text-secondary" font-size="12">Open vault in tkr-secrets</text>
    <line x1="720" y1="57" x2="852" y2="57" stroke="#616161" stroke-width="1"/>
    <text x="855" y="54" class="text-tertiary" font-size="11">↗</text>
  </g>

  <!-- ==================== SYNC SUMMARY BAR ==================== -->
  <g transform="translate(32, 220)">
    <rect width="1216" height="52" rx="8" fill="#FFFFFF" stroke="#E5E4E0" stroke-width="1"/>

    <!-- Stats -->
    <text x="20" y="31" class="text-primary" font-size="13" font-weight="600">12</text>
    <text x="34" y="31" class="text-tertiary" font-size="12">secrets total</text>

    <circle cx="140" cy="26" r="2.5" fill="#E0E0E0"/>

    <text x="154" y="31" class="text-primary" font-size="13" font-weight="600">3</text>
    <text x="166" y="31" class="text-tertiary" font-size="12">out of sync</text>

    <circle cx="280" cy="26" r="2.5" fill="#E0E0E0"/>

    <text x="294" y="31" class="text-primary" font-size="13" font-weight="600">2</text>
    <text x="306" y="31" class="text-tertiary" font-size="12">missing targets</text>

    <circle cx="440" cy="26" r="2.5" fill="#E0E0E0"/>

    <text x="454" y="31" class="text-tertiary" font-size="12">Last synced: today at 14:21 UTC</text>

    <!-- Sync All button — right aligned -->
    <g transform="translate(1116, 10)">
      <rect width="100" height="32" rx="6" fill="#212121"/>
      <text x="50" y="20.5" text-anchor="middle" class="text-inverse" font-size="13" font-weight="500">Sync All</text>
    </g>
  </g>

  <!-- ==================== TABLE HEADER ROW ==================== -->
  <!-- Target filter pills + column headers in one area -->
  <g transform="translate(32, 288)">

    <!-- Target filter pills -->
    <!-- All (active) -->
    <rect width="40" height="22" rx="11" fill="#424242"/>
    <text x="20" y="16" text-anchor="middle" class="text-inverse" font-size="11" font-weight="500">All</text>

    <!-- Supabase pill (inactive) -->
    <text x="50" y="15" class="text-secondary" font-size="11">Supabase</text>
    <!-- Vercel pill (inactive) -->
    <text x="120" y="15" class="text-secondary" font-size="11">Vercel</text>
    <!-- GitHub pill (inactive) -->
    <text x="166" y="15" class="text-secondary" font-size="11">GitHub</text>
  </g>

  <!-- ==================== TABLE ==================== -->
  <!-- Table card wrapping all rows -->
  <g transform="translate(32, 324)">
    <rect width="1216" height="700" rx="8" fill="#FFFFFF" stroke="#E5E4E0" stroke-width="1"/>

    <!-- Column header row -->
    <rect width="1216" height="40" rx="8" fill="#F5F5F5"/>
    <!-- Clip top-only radius workaround: solid rect below header line -->
    <rect y="20" width="1216" height="20" fill="#F5F5F5"/>
    <line x1="0" y1="40" x2="1216" y2="40" stroke="#E0E0E0" stroke-width="1"/>

    <text x="20" y="25" class="text-tertiary" font-size="10" font-weight="600" letter-spacing="0.5">SECRET NAME</text>
    <text x="320" y="25" class="text-tertiary" font-size="10" font-weight="600" letter-spacing="0.5">VAULT VALUE</text>
    <text x="520" y="25" class="text-tertiary" font-size="10" font-weight="600" letter-spacing="0.5">SUPABASE</text>
    <text x="680" y="25" class="text-tertiary" font-size="10" font-weight="600" letter-spacing="0.5">VERCEL</text>
    <text x="840" y="25" class="text-tertiary" font-size="10" font-weight="600" letter-spacing="0.5">GITHUB</text>
    <text x="1100" y="25" class="text-tertiary" font-size="10" font-weight="600" letter-spacing="0.5">ACTION</text>

    <!-- ==================== ROW 1: RESEND_API_KEY — missing GitHub ==================== -->
    <!-- Left border accent for action-needed row -->
    <rect x="0" y="40" width="4" height="80" fill="#212121"/>
    <line x1="0" y1="120" x2="1216" y2="120" stroke="#E0E0E0" stroke-width="1"/>

    <text x="20" y="88" class="text-primary" font-size="13" font-weight="600">RESEND_API_KEY</text>
    <text x="320" y="88" class="text-secondary" font-size="12" font-family="monospace">re_abc...</text>

    <!-- Supabase: synced -->
    <path d="M520,82 L524,86 L532,78" fill="none" stroke="#9E9E9E" stroke-width="1.5" stroke-linecap="round" stroke-linejoin="round"/>
    <text x="538" y="88" class="text-tertiary" font-size="12">synced</text>

    <!-- Vercel: synced -->
    <path d="M680,82 L684,86 L692,78" fill="none" stroke="#9E9E9E" stroke-width="1.5" stroke-linecap="round" stroke-linejoin="round"/>
    <text x="698" y="88" class="text-tertiary" font-size="12">synced</text>

    <!-- GitHub: missing X -->
    <path d="M840,78 L850,88 M850,78 L840,88" fill="none" stroke="#212121" stroke-width="1.5" stroke-linecap="round"/>
    <text x="856" y="88" class="text-primary" font-size="12" font-weight="500">missing</text>

    <!-- Action: Sync button -->
    <g transform="translate(1100, 68)">
      <rect width="96" height="32" rx="6" fill="#212121"/>
      <text x="48" y="20.5" text-anchor="middle" class="text-inverse" font-size="12" font-weight="500">Sync to GitHub</text>
    </g>

    <!-- ==================== ROW 2: OPENAI_API_KEY — missing Supabase + GitHub ==================== -->
    <rect x="0" y="120" width="4" height="80" fill="#212121"/>
    <line x1="0" y1="200" x2="1216" y2="200" stroke="#E0E0E0" stroke-width="1"/>

    <text x="20" y="168" class="text-primary" font-size="13" font-weight="600">OPENAI_API_KEY</text>
    <text x="320" y="168" class="text-secondary" font-size="12" font-family="monospace">sk-proj...</text>

    <!-- Supabase: missing -->
    <path d="M520,162 L530,172 M530,162 L520,172" fill="none" stroke="#212121" stroke-width="1.5" stroke-linecap="round"/>
    <text x="538" y="168" class="text-primary" font-size="12" font-weight="500">missing</text>

    <!-- Vercel: n/a dash -->
    <line x1="680" y1="168" x2="696" y2="168" stroke="#9E9E9E" stroke-width="1.5"/>

    <!-- GitHub: missing -->
    <path d="M840,162 L850,172 M850,162 L840,172" fill="none" stroke="#212121" stroke-width="1.5" stroke-linecap="round"/>
    <text x="856" y="168" class="text-primary" font-size="12" font-weight="500">missing</text>

    <!-- Action: Sync button -->
    <g transform="translate(1100, 148)">
      <rect width="80" height="32" rx="6" fill="#212121"/>
      <text x="40" y="20.5" text-anchor="middle" class="text-inverse" font-size="12" font-weight="500">Sync</text>
    </g>

    <!-- ==================== ROW 3: VITE_SUPABASE_URL — fully synced ==================== -->
    <!-- No left border (fully synced) -->
    <line x1="0" y1="280" x2="1216" y2="280" stroke="#E0E0E0" stroke-width="1"/>

    <text x="20" y="248" class="text-primary" font-size="13" font-weight="600">VITE_SUPABASE_URL</text>
    <text x="320" y="248" class="text-secondary" font-size="12" font-family="monospace">https://abc.supabase.co</text>

    <!-- Supabase: n/a -->
    <line x1="520" y1="248" x2="536" y2="248" stroke="#9E9E9E" stroke-width="1.5"/>

    <!-- Vercel: synced -->
    <path d="M680,242 L684,246 L692,238" fill="none" stroke="#9E9E9E" stroke-width="1.5" stroke-linecap="round" stroke-linejoin="round"/>
    <text x="698" y="248" class="text-tertiary" font-size="12">synced</text>

    <!-- GitHub: synced -->
    <path d="M840,242 L844,246 L852,238" fill="none" stroke="#9E9E9E" stroke-width="1.5" stroke-linecap="round" stroke-linejoin="round"/>
    <text x="858" y="248" class="text-tertiary" font-size="12">synced</text>

    <!-- Action: synced pill -->
    <g transform="translate(1100, 232)">
      <rect width="80" height="26" rx="13" fill="#E0E0E0"/>
      <text x="40" y="17" text-anchor="middle" class="text-secondary" font-size="11" font-weight="500">synced</text>
    </g>

    <!-- ==================== ROW 4: SUPABASE_ACCESS_TOKEN — missing GitHub ==================== -->
    <rect x="0" y="280" width="4" height="80" fill="#212121"/>
    <line x1="0" y1="360" x2="1216" y2="360" stroke="#E0E0E0" stroke-width="1"/>

    <text x="20" y="328" class="text-primary" font-size="13" font-weight="600">SUPABASE_ACCESS_TOKEN</text>
    <text x="320" y="328" class="text-secondary" font-size="12" font-family="monospace">sbp_a1b2...</text>

    <!-- Supabase: n/a -->
    <line x1="520" y1="328" x2="536" y2="328" stroke="#9E9E9E" stroke-width="1.5"/>

    <!-- Vercel: n/a -->
    <line x1="680" y1="328" x2="696" y2="328" stroke="#9E9E9E" stroke-width="1.5"/>

    <!-- GitHub: missing -->
    <path d="M840,322 L850,332 M850,322 L840,332" fill="none" stroke="#212121" stroke-width="1.5" stroke-linecap="round"/>
    <text x="856" y="328" class="text-primary" font-size="12" font-weight="500">missing</text>

    <g transform="translate(1100, 308)">
      <rect width="80" height="32" rx="6" fill="#212121"/>
      <text x="40" y="20.5" text-anchor="middle" class="text-inverse" font-size="12" font-weight="500">Sync</text>
    </g>

    <!-- ==================== ROW 5: VITE_SUPABASE_ANON_KEY — synced ==================== -->
    <line x1="0" y1="440" x2="1216" y2="440" stroke="#E0E0E0" stroke-width="1"/>

    <text x="20" y="408" class="text-primary" font-size="13" font-weight="600">VITE_SUPABASE_ANON_KEY</text>
    <text x="320" y="408" class="text-secondary" font-size="12" font-family="monospace">eyJhbGciOiJI...</text>

    <!-- Supabase: n/a -->
    <line x1="520" y1="408" x2="536" y2="408" stroke="#9E9E9E" stroke-width="1.5"/>

    <!-- Vercel: synced -->
    <path d="M680,402 L684,406 L692,398" fill="none" stroke="#9E9E9E" stroke-width="1.5" stroke-linecap="round" stroke-linejoin="round"/>
    <text x="698" y="408" class="text-tertiary" font-size="12">synced</text>

    <!-- GitHub: synced -->
    <path d="M840,402 L844,406 L852,398" fill="none" stroke="#9E9E9E" stroke-width="1.5" stroke-linecap="round" stroke-linejoin="round"/>
    <text x="858" y="408" class="text-tertiary" font-size="12">synced</text>

    <g transform="translate(1100, 392)">
      <rect width="80" height="26" rx="13" fill="#E0E0E0"/>
      <text x="40" y="17" text-anchor="middle" class="text-secondary" font-size="11" font-weight="500">synced</text>
    </g>

    <!-- ==================== ROW 6: DATABASE_URL — differs in Supabase ==================== -->
    <rect x="0" y="440" width="4" height="80" fill="#212121"/>
    <line x1="0" y1="520" x2="1216" y2="520" stroke="#E0E0E0" stroke-width="1"/>

    <text x="20" y="488" class="text-primary" font-size="13" font-weight="600">DATABASE_URL</text>
    <text x="320" y="488" class="text-secondary" font-size="12" font-family="monospace">postgres://db.abc...</text>

    <!-- Supabase: differs -->
    <text x="520" y="492" class="text-primary" font-size="16" font-weight="700">~</text>
    <text x="536" y="488" class="text-primary" font-size="12" font-weight="500">differs</text>

    <!-- Vercel: n/a -->
    <line x1="680" y1="488" x2="696" y2="488" stroke="#9E9E9E" stroke-width="1.5"/>

    <!-- GitHub: n/a -->
    <line x1="840" y1="488" x2="856" y2="488" stroke="#9E9E9E" stroke-width="1.5"/>

    <!-- Action: Diff Preview + Sync -->
    <g transform="translate(1060, 468)">
      <rect width="68" height="32" rx="6" fill="#FFFFFF" stroke="#E5E4E0" stroke-width="1.5"/>
      <text x="34" y="20.5" text-anchor="middle" class="text-secondary" font-size="11" font-weight="500">Diff</text>
    </g>
    <g transform="translate(1136, 468)">
      <rect width="64" height="32" rx="6" fill="#212121"/>
      <text x="32" y="20.5" text-anchor="middle" class="text-inverse" font-size="11" font-weight="500">Sync</text>
    </g>

    <!-- ==================== ROW 7: GITHUB_TOKEN — synced ==================== -->
    <line x1="0" y1="600" x2="1216" y2="600" stroke="#E0E0E0" stroke-width="1"/>

    <text x="20" y="568" class="text-primary" font-size="13" font-weight="600">GITHUB_TOKEN</text>
    <text x="320" y="568" class="text-secondary" font-size="12" font-family="monospace">ghp_abc...</text>

    <!-- Supabase: n/a -->
    <line x1="520" y1="568" x2="536" y2="568" stroke="#9E9E9E" stroke-width="1.5"/>

    <!-- Vercel: n/a -->
    <line x1="680" y1="568" x2="696" y2="568" stroke="#9E9E9E" stroke-width="1.5"/>

    <!-- GitHub: synced -->
    <path d="M840,562 L844,566 L852,558" fill="none" stroke="#9E9E9E" stroke-width="1.5" stroke-linecap="round" stroke-linejoin="round"/>
    <text x="858" y="568" class="text-tertiary" font-size="12">synced</text>

    <g transform="translate(1100, 552)">
      <rect width="80" height="26" rx="13" fill="#E0E0E0"/>
      <text x="40" y="17" text-anchor="middle" class="text-secondary" font-size="11" font-weight="500">synced</text>
    </g>

    <!-- ==================== ROW 8: VERCEL_TOKEN — synced ==================== -->
    <line x1="0" y1="680" x2="1216" y2="680" stroke="#E0E0E0" stroke-width="1"/>

    <text x="20" y="648" class="text-primary" font-size="13" font-weight="600">VERCEL_TOKEN</text>
    <text x="320" y="648" class="text-secondary" font-size="12" font-family="monospace">vcel_...</text>

    <!-- Supabase: n/a -->
    <line x1="520" y1="648" x2="536" y2="648" stroke="#9E9E9E" stroke-width="1.5"/>

    <!-- Vercel: synced -->
    <path d="M680,642 L684,646 L692,638" fill="none" stroke="#9E9E9E" stroke-width="1.5" stroke-linecap="round" stroke-linejoin="round"/>
    <text x="698" y="648" class="text-tertiary" font-size="12">synced</text>

    <!-- GitHub: n/a -->
    <line x1="840" y1="648" x2="856" y2="648" stroke="#9E9E9E" stroke-width="1.5"/>

    <g transform="translate(1100, 632)">
      <rect width="80" height="26" rx="13" fill="#E0E0E0"/>
      <text x="40" y="17" text-anchor="middle" class="text-secondary" font-size="11" font-weight="500">synced</text>
    </g>

    <!-- ==================== SHOW MORE ROW ==================== -->
    <text x="608" y="698" text-anchor="middle" class="text-secondary" font-size="12">Show remaining 4 secrets</text>
    <line x1="510" y1="701" x2="706" y2="701" stroke="#616161" stroke-width="1"/>

  </g>

  <!-- ==================== LEGEND FOOTER ==================== -->
  <g transform="translate(32, 1040)">
    <!-- Legend inline -->
    <text x="0" y="12" class="text-tertiary" font-size="10" font-weight="600" letter-spacing="0.4">STATUS LEGEND:</text>

    <!-- Synced -->
    <path d="M104,4 L108,8 L116,0" fill="none" stroke="#9E9E9E" stroke-width="1.5" stroke-linecap="round" stroke-linejoin="round"/>
    <text x="122" y="12" class="text-tertiary" font-size="11">Synced</text>

    <!-- Missing -->
    <path d="M184,2 L194,12 M194,2 L184,12" fill="none" stroke="#212121" stroke-width="1.5" stroke-linecap="round"/>
    <text x="200" y="12" class="text-primary" font-size="11">Missing</text>

    <!-- Differs -->
    <text x="264" y="14" class="text-primary" font-size="14" font-weight="700">~</text>
    <text x="278" y="12" class="text-secondary" font-size="11">Differs (use Diff to preview before syncing)</text>

    <!-- N/A -->
    <line x1="520" y1="6" x2="534" y2="6" stroke="#9E9E9E" stroke-width="1.5"/>
    <text x="540" y="12" class="text-tertiary" font-size="11">Not applicable to this target</text>
  </g>

</svg>
