<svg xmlns="http://www.w3.org/2000/svg" xmlns:xlink="http://www.w3.org/1999/xlink" width="1638" zoomAndPan="magnify" viewBox="0 0 1228.5 1228.500003" height="1638" preserveAspectRatio="xMidYMid meet" version="1.0"><defs><clipPath id="71d013b26f"><path d="M 503 49.996094 L 724 49.996094 L 724 525 L 503 525 Z M 503 49.996094 " clip-rule="nonzero"/></clipPath><clipPath id="2bcd2138c8"><path d="M 503 701 L 724 701 L 724 1177.539062 L 503 1177.539062 Z M 503 701 " clip-rule="nonzero"/></clipPath><clipPath id="65419376b0"><path d="M 602 49.996094 L 624 49.996094 L 624 1177.539062 L 602 1177.539062 Z M 602 49.996094 " clip-rule="nonzero"/></clipPath><clipPath id="05b21f55ee"><path d="M 49.996094 503 L 1177.539062 503 L 1177.539062 724 L 49.996094 724 Z M 49.996094 503 " clip-rule="nonzero"/></clipPath><clipPath id="010a90921e"><path d="M 49.996094 602 L 1177.539062 602 L 1177.539062 624 L 49.996094 624 Z M 49.996094 602 " clip-rule="nonzero"/></clipPath><clipPath id="22f20a45d5"><path d="M 212.039062 212.039062 L 1015.714844 212.039062 L 1015.714844 1015.714844 L 212.039062 1015.714844 Z M 212.039062 212.039062 " clip-rule="nonzero"/></clipPath><clipPath id="b4dca1a42a"><path d="M 613.878906 212.039062 C 391.949219 212.039062 212.039062 391.949219 212.039062 613.878906 C 212.039062 835.808594 391.949219 1015.714844 613.878906 1015.714844 C 835.804688 1015.714844 1015.714844 835.808594 1015.714844 613.878906 C 1015.714844 391.949219 835.804688 212.039062 613.878906 212.039062 Z M 613.878906 212.039062 " clip-rule="nonzero"/></clipPath><clipPath id="138d31408e"><path d="M 0.0390625 0.0390625 L 803.714844 0.0390625 L 803.714844 803.714844 L 0.0390625 803.714844 Z M 0.0390625 0.0390625 " clip-rule="nonzero"/></clipPath><clipPath id="3224c0fbcc"><path d="M 401.878906 0.0390625 C 179.949219 0.0390625 0.0390625 179.949219 0.0390625 401.878906 C 0.0390625 623.808594 179.949219 803.714844 401.878906 803.714844 C 623.804688 803.714844 803.714844 623.808594 803.714844 401.878906 C 803.714844 179.949219 623.804688 0.0390625 401.878906 0.0390625 Z M 401.878906 0.0390625 " clip-rule="nonzero"/></clipPath><clipPath id="d36dfeee2f"><rect x="0" width="804" y="0" height="804"/></clipPath><clipPath id="a4f194611e"><path d="M 527.628906 749 L 700.113281 749 L 700.113281 1142.820312 L 527.628906 1142.820312 Z M 527.628906 749 " clip-rule="nonzero"/></clipPath><clipPath id="d4869fea9d"><path d="M 613.871094 1142.820312 L 527.628906 749.230469 L 700.113281 749.230469 Z M 613.871094 1142.820312 " clip-rule="nonzero"/></clipPath><clipPath id="dd9f08fac1"><path d="M 0.628906 0.214844 L 173.113281 0.214844 L 173.113281 393.820312 L 0.628906 393.820312 Z M 0.628906 0.214844 " clip-rule="nonzero"/></clipPath><clipPath id="d75d3d1aad"><path d="M 86.871094 393.820312 L 0.628906 0.230469 L 173.113281 0.230469 Z M 86.871094 393.820312 " clip-rule="nonzero"/></clipPath><clipPath id="154de7adbf"><rect x="0" width="174" y="0" height="394"/></clipPath><clipPath id="77cf31dd99"><path d="M 527.636719 76.160156 L 700.117188 76.160156 L 700.117188 470 L 527.636719 470 Z M 527.636719 76.160156 " clip-rule="nonzero"/></clipPath><clipPath id="c7993f73e2"><path d="M 613.878906 76.160156 L 700.117188 469.75 L 527.636719 469.75 Z M 613.878906 76.160156 " clip-rule="nonzero"/></clipPath><clipPath id="680482df39"><path d="M 0.636719 0.160156 L 173.117188 0.160156 L 173.117188 393.96875 L 0.636719 393.96875 Z M 0.636719 0.160156 " clip-rule="nonzero"/></clipPath><clipPath id="015c5ac419"><path d="M 86.878906 0.160156 L 173.117188 393.75 L 0.636719 393.75 Z M 86.878906 0.160156 " clip-rule="nonzero"/></clipPath><clipPath id="6a2203f0da"><rect x="0" width="174" y="0" height="394"/></clipPath><clipPath id="e797cc275c"><path d="M 69.054688 527.632812 L 463 527.632812 L 463 700.117188 L 69.054688 700.117188 Z M 69.054688 527.632812 " clip-rule="nonzero"/></clipPath><clipPath id="52f0394ef7"><path d="M 69.054688 613.875 L 462.640625 527.632812 L 462.640625 700.117188 Z M 69.054688 613.875 " clip-rule="nonzero"/></clipPath><clipPath id="e13c0a3a9e"><path d="M 0.0546875 0.632812 L 393.773438 0.632812 L 393.773438 173.117188 L 0.0546875 173.117188 Z M 0.0546875 0.632812 " clip-rule="nonzero"/></clipPath><clipPath id="7e6e9f813e"><path d="M 0.0546875 86.875 L 393.640625 0.632812 L 393.640625 173.117188 Z M 0.0546875 86.875 " clip-rule="nonzero"/></clipPath><clipPath id="51b2b5f2f1"><rect x="0" width="394" y="0" height="174"/></clipPath><clipPath id="84a15d1710"><path d="M 768 527.640625 L 1162.003906 527.640625 L 1162.003906 700.121094 L 768 700.121094 Z M 768 527.640625 " clip-rule="nonzero"/></clipPath><clipPath id="a28c45dbf5"><path d="M 1162.003906 613.878906 L 768.414062 700.121094 L 768.414062 527.640625 Z M 1162.003906 613.878906 " clip-rule="nonzero"/></clipPath><clipPath id="5414bf93ee"><path d="M 0.40625 0.640625 L 394.003906 0.640625 L 394.003906 173.121094 L 0.40625 173.121094 Z M 0.40625 0.640625 " clip-rule="nonzero"/></clipPath><clipPath id="88b897d4ab"><path d="M 394.003906 86.878906 L 0.414062 173.121094 L 0.414062 0.640625 Z M 394.003906 86.878906 " clip-rule="nonzero"/></clipPath><clipPath id="03e27f827a"><rect x="0" width="395" y="0" height="174"/></clipPath><clipPath id="b58ffd4c01"><rect x="0" width="1228" y="0" height="1228"/></clipPath><clipPath id="2e75c98156"><path d="M 489.421875 489.421875 L 738.335938 489.421875 L 738.335938 738.335938 L 489.421875 738.335938 Z M 489.421875 489.421875 " clip-rule="nonzero"/></clipPath><clipPath id="47728494be"><path d="M 613.878906 489.421875 C 545.140625 489.421875 489.421875 545.140625 489.421875 613.878906 C 489.421875 682.613281 545.140625 738.335938 613.878906 738.335938 C 682.613281 738.335938 738.335938 682.613281 738.335938 613.878906 C 738.335938 545.140625 682.613281 489.421875 613.878906 489.421875 Z M 613.878906 489.421875 " clip-rule="nonzero"/></clipPath><clipPath id="270304e0ea"><path d="M 0.421875 0.421875 L 249.335938 0.421875 L 249.335938 249.335938 L 0.421875 249.335938 Z M 0.421875 0.421875 " clip-rule="nonzero"/></clipPath><clipPath id="b912a8a619"><path d="M 124.878906 0.421875 C 56.140625 0.421875 0.421875 56.140625 0.421875 124.878906 C 0.421875 193.613281 56.140625 249.335938 124.878906 249.335938 C 193.613281 249.335938 249.335938 193.613281 249.335938 124.878906 C 249.335938 56.140625 193.613281 0.421875 124.878906 0.421875 Z M 124.878906 0.421875 " clip-rule="nonzero"/></clipPath><clipPath id="454cf08624"><rect x="0" width="250" y="0" height="250"/></clipPath></defs><g clip-path="url(#71d013b26f)"><path fill="#00385c" d="M 712.457031 524.503906 C 707.558594 524.503906 703.160156 521.109375 702.066406 516.136719 L 613.164062 109.714844 L 524.261719 516.136719 C 523.007812 521.871094 517.355469 525.535156 511.59375 524.261719 C 505.851562 523 502.214844 517.328125 503.46875 511.59375 L 602.769531 57.65625 C 603.839844 52.773438 608.164062 49.289062 613.164062 49.289062 C 618.164062 49.289062 622.488281 52.773438 623.5625 57.65625 L 722.859375 511.59375 C 724.113281 517.328125 720.476562 523 714.734375 524.261719 C 713.972656 524.429688 713.203125 524.503906 712.457031 524.503906 Z M 712.457031 524.503906 " fill-opacity="1" fill-rule="nonzero"/></g><g clip-path="url(#2bcd2138c8)"><path fill="#00385c" d="M 613.164062 1177.039062 C 608.164062 1177.039062 603.839844 1173.554688 602.769531 1168.671875 L 503.46875 714.734375 C 502.214844 709 505.851562 703.328125 511.59375 702.066406 C 517.308594 700.800781 522.996094 704.449219 524.261719 710.191406 L 613.164062 1116.613281 L 702.066406 710.191406 C 703.328125 704.464844 709.035156 700.855469 714.734375 702.066406 C 720.476562 703.328125 724.113281 709 722.859375 714.734375 L 623.5625 1168.671875 C 622.488281 1173.554688 618.164062 1177.039062 613.164062 1177.039062 Z M 613.164062 1177.039062 " fill-opacity="1" fill-rule="nonzero"/></g><g clip-path="url(#65419376b0)"><path fill="#00385c" d="M 613.164062 1177.039062 C 607.289062 1177.039062 602.527344 1172.273438 602.527344 1166.402344 L 602.527344 59.929688 C 602.527344 54.054688 607.289062 49.289062 613.164062 49.289062 C 619.039062 49.289062 623.804688 54.054688 623.804688 59.929688 L 623.804688 1166.402344 C 623.804688 1172.273438 619.039062 1177.039062 613.164062 1177.039062 Z M 613.164062 1177.039062 " fill-opacity="1" fill-rule="nonzero"/></g><g clip-path="url(#05b21f55ee)"><path fill="#00385c" d="M 712.464844 723.101562 C 709.671875 723.101562 706.957031 722 704.941406 719.984375 L 613.164062 628.210938 L 521.386719 719.984375 C 518.832031 722.546875 515.132812 723.621094 511.59375 722.859375 L 57.65625 623.5625 C 52.773438 622.488281 49.289062 618.164062 49.289062 613.164062 C 49.289062 608.164062 52.773438 603.839844 57.65625 602.769531 L 511.59375 503.46875 C 515.132812 502.707031 518.832031 503.78125 521.386719 506.34375 L 613.164062 598.121094 L 704.941406 506.34375 C 707.496094 503.78125 711.195312 502.707031 714.734375 503.46875 L 1168.671875 602.769531 C 1173.554688 603.839844 1177.039062 608.164062 1177.039062 613.164062 C 1177.039062 618.164062 1173.554688 622.488281 1168.671875 623.5625 L 714.734375 722.859375 C 713.980469 723.019531 713.21875 723.101562 712.464844 723.101562 Z M 628.210938 613.164062 L 715.871094 700.828125 L 1116.613281 613.164062 L 715.871094 525.503906 Z M 109.714844 613.164062 L 510.457031 700.828125 L 598.121094 613.164062 L 510.457031 525.503906 Z M 109.714844 613.164062 " fill-opacity="1" fill-rule="nonzero"/></g><g clip-path="url(#010a90921e)"><path fill="#00385c" d="M 1166.402344 623.804688 L 59.929688 623.804688 C 54.054688 623.804688 49.289062 619.039062 49.289062 613.164062 C 49.289062 607.289062 54.054688 602.527344 59.929688 602.527344 L 1166.402344 602.527344 C 1172.273438 602.527344 1177.039062 607.289062 1177.039062 613.164062 C 1177.039062 619.039062 1172.273438 623.804688 1166.402344 623.804688 Z M 1166.402344 623.804688 " fill-opacity="1" fill-rule="nonzero"/></g><path fill="#00385c" d="M 784.238281 540.25 C 782.554688 540.25 780.847656 539.855469 779.261719 539.015625 C 774.074219 536.265625 772.09375 529.824219 774.835938 524.628906 L 857.109375 369.21875 L 701.699219 451.492188 C 696.527344 454.226562 690.070312 452.261719 687.3125 447.066406 C 684.570312 441.871094 686.550781 435.429688 691.738281 432.679688 L 877.710938 334.234375 C 881.832031 332.042969 886.914062 332.8125 890.210938 336.117188 C 893.515625 339.421875 894.277344 344.492188 892.097656 348.621094 L 793.648438 534.589844 C 791.738281 538.191406 788.046875 540.25 784.238281 540.25 Z M 784.238281 540.25 " fill-opacity="1" fill-rule="nonzero"/><path fill="#00385c" d="M 442.09375 540.25 C 438.285156 540.25 434.589844 538.191406 432.679688 534.589844 L 334.234375 348.621094 C 332.050781 344.492188 332.8125 339.421875 336.117188 336.117188 C 339.414062 332.8125 344.492188 332.042969 348.621094 334.234375 L 534.589844 432.679688 C 539.777344 435.429688 541.757812 441.871094 539.015625 447.066406 C 536.273438 452.261719 529.824219 454.226562 524.628906 451.492188 L 369.21875 369.21875 L 451.492188 524.628906 C 454.234375 529.824219 452.253906 536.265625 447.066406 539.015625 C 445.480469 539.855469 443.777344 540.25 442.09375 540.25 Z M 442.09375 540.25 " fill-opacity="1" fill-rule="nonzero"/><path fill="#00385c" d="M 343.640625 893.328125 C 340.882812 893.328125 338.160156 892.253906 336.117188 890.210938 C 332.8125 886.910156 332.050781 881.839844 334.234375 877.710938 L 432.679688 691.738281 C 435.445312 686.558594 441.898438 684.585938 447.066406 687.3125 C 452.253906 690.0625 454.234375 696.503906 451.492188 701.699219 L 369.21875 857.109375 L 524.628906 774.835938 C 529.824219 772.109375 536.273438 774.082031 539.015625 779.261719 C 541.757812 784.457031 539.777344 790.898438 534.589844 793.648438 L 348.621094 892.097656 C 347.046875 892.925781 345.335938 893.328125 343.640625 893.328125 Z M 343.640625 893.328125 " fill-opacity="1" fill-rule="nonzero"/><path fill="#00385c" d="M 882.691406 893.328125 C 880.992188 893.328125 879.28125 892.925781 877.710938 892.097656 L 691.738281 793.648438 C 686.550781 790.898438 684.570312 784.457031 687.3125 779.261719 C 690.070312 774.082031 696.527344 772.109375 701.699219 774.835938 L 857.109375 857.109375 L 774.835938 701.699219 C 772.09375 696.503906 774.074219 690.0625 779.261719 687.3125 C 784.457031 684.585938 790.894531 686.558594 793.648438 691.738281 L 892.097656 877.710938 C 894.277344 881.839844 893.515625 886.910156 890.210938 890.210938 C 888.167969 892.253906 885.445312 893.328125 882.691406 893.328125 Z M 882.691406 893.328125 " fill-opacity="1" fill-rule="nonzero"/><path fill="#00385c" d="M 1082.035156 510.320312 C 1077.230469 510.320312 1072.871094 507.050781 1071.703125 502.171875 C 1051.425781 418.097656 1008.199219 341.152344 946.683594 279.644531 C 885.175781 218.128906 808.230469 174.902344 724.15625 154.628906 C 718.441406 153.25 714.929688 147.507812 716.308594 141.792969 C 717.679688 136.078125 723.433594 132.582031 729.144531 133.945312 C 817.027344 155.132812 897.449219 200.316406 961.730469 264.601562 C 1026.015625 328.878906 1071.195312 409.300781 1092.382812 497.1875 C 1093.761719 502.902344 1090.25 508.644531 1084.535156 510.023438 C 1083.699219 510.222656 1082.859375 510.320312 1082.035156 510.320312 Z M 1082.035156 510.320312 " fill-opacity="1" fill-rule="nonzero"/><path fill="#00385c" d="M 144.292969 510.320312 C 143.46875 510.320312 142.628906 510.222656 141.792969 510.023438 C 136.078125 508.644531 132.566406 502.902344 133.945312 497.1875 C 155.132812 409.300781 200.316406 328.878906 264.601562 264.601562 C 328.878906 200.316406 409.300781 155.132812 497.1875 133.945312 C 502.9375 132.59375 508.648438 136.085938 510.019531 141.792969 C 511.398438 147.507812 507.886719 153.25 502.171875 154.628906 C 418.097656 174.902344 341.152344 218.128906 279.644531 279.644531 C 218.128906 341.152344 174.902344 418.097656 154.628906 502.171875 C 153.457031 507.050781 149.101562 510.320312 144.292969 510.320312 Z M 144.292969 510.320312 " fill-opacity="1" fill-rule="nonzero"/><path fill="#00385c" d="M 499.6875 1092.683594 C 498.863281 1092.683594 498.023438 1092.585938 497.1875 1092.382812 C 409.300781 1071.195312 328.878906 1026.015625 264.601562 961.730469 C 200.316406 897.449219 155.132812 817.027344 133.945312 729.144531 C 132.566406 723.429688 136.078125 717.6875 141.792969 716.308594 C 147.554688 714.976562 153.257812 718.449219 154.628906 724.15625 C 174.902344 808.230469 218.128906 885.175781 279.644531 946.683594 C 341.152344 1008.199219 418.097656 1051.429688 502.171875 1071.703125 C 507.886719 1073.082031 511.398438 1078.820312 510.019531 1084.535156 C 508.851562 1089.414062 504.488281 1092.683594 499.6875 1092.683594 Z M 499.6875 1092.683594 " fill-opacity="1" fill-rule="nonzero"/><path fill="#00385c" d="M 726.640625 1092.683594 C 721.835938 1092.683594 717.476562 1089.414062 716.308594 1084.535156 C 714.929688 1078.820312 718.441406 1073.082031 724.15625 1071.703125 C 808.230469 1051.429688 885.175781 1008.199219 946.683594 946.683594 C 1008.199219 885.175781 1051.425781 808.230469 1071.703125 724.15625 C 1073.078125 718.449219 1078.84375 714.976562 1084.535156 716.308594 C 1090.25 717.6875 1093.761719 723.429688 1092.382812 729.144531 C 1071.195312 817.027344 1026.015625 897.449219 961.730469 961.730469 C 897.449219 1026.015625 817.027344 1071.195312 729.144531 1092.382812 C 728.304688 1092.585938 727.464844 1092.683594 726.640625 1092.683594 Z M 726.640625 1092.683594 " fill-opacity="1" fill-rule="nonzero"/><g clip-path="url(#22f20a45d5)"><g clip-path="url(#b4dca1a42a)"><g transform="matrix(1, 0, 0, 1, 212, 212)"><g clip-path="url(#d36dfeee2f)"><g clip-path="url(#138d31408e)"><g clip-path="url(#3224c0fbcc)"><path fill="#00385c" d="M 0.0390625 0.0390625 L 803.714844 0.0390625 L 803.714844 803.714844 L 0.0390625 803.714844 Z M 0.0390625 0.0390625 " fill-opacity="1" fill-rule="nonzero"/></g></g></g></g></g></g><g clip-path="url(#a4f194611e)"><g clip-path="url(#d4869fea9d)"><g transform="matrix(1, 0, 0, 1, 527, 749)"><g clip-path="url(#154de7adbf)"><g clip-path="url(#dd9f08fac1)"><g clip-path="url(#d75d3d1aad)"><path fill="#00385c" d="M 173.113281 393.820312 L 0.628906 393.820312 L 0.628906 0.34375 L 173.113281 0.34375 Z M 173.113281 393.820312 " fill-opacity="1" fill-rule="nonzero"/></g></g></g></g></g></g><g clip-path="url(#77cf31dd99)"><g clip-path="url(#c7993f73e2)"><g transform="matrix(1, 0, 0, 1, 527, 76)"><g clip-path="url(#6a2203f0da)"><g clip-path="url(#680482df39)"><g clip-path="url(#015c5ac419)"><path fill="#00385c" d="M 0.636719 0.160156 L 173.117188 0.160156 L 173.117188 393.636719 L 0.636719 393.636719 Z M 0.636719 0.160156 " fill-opacity="1" fill-rule="nonzero"/></g></g></g></g></g></g><g clip-path="url(#e797cc275c)"><g clip-path="url(#52f0394ef7)"><g transform="matrix(1, 0, 0, 1, 69, 527)"><g clip-path="url(#51b2b5f2f1)"><g clip-path="url(#e13c0a3a9e)"><g clip-path="url(#7e6e9f813e)"><path fill="#00385c" d="M 0.0546875 173.117188 L 0.0546875 0.632812 L 393.527344 0.632812 L 393.527344 173.117188 Z M 0.0546875 173.117188 " fill-opacity="1" fill-rule="nonzero"/></g></g></g></g></g></g><g clip-path="url(#84a15d1710)"><g clip-path="url(#a28c45dbf5)"><g transform="matrix(1, 0, 0, 1, 768, 527)"><g clip-path="url(#03e27f827a)"><g clip-path="url(#5414bf93ee)"><g clip-path="url(#88b897d4ab)"><path fill="#00385c" d="M 394.003906 0.640625 L 394.003906 173.121094 L 0.527344 173.121094 L 0.527344 0.640625 Z M 394.003906 0.640625 " fill-opacity="1" fill-rule="nonzero"/></g></g></g></g></g></g><g transform="matrix(1, 0, 0, 1, 0, -0.000000000000080557)"><g clip-path="url(#b58ffd4c01)"><path fill="#ecc8c1" d="M 945.320312 430.15625 C 949.332031 437.386719 953.101562 444.746094 956.628906 452.226562 C 960.15625 459.707031 963.433594 467.292969 966.464844 474.988281 C 969.496094 482.683594 972.273438 490.46875 974.796875 498.347656 C 977.316406 506.222656 979.578125 514.175781 981.578125 522.199219 C 983.578125 530.222656 985.316406 538.304688 986.789062 546.445312 C 988.257812 554.582031 989.464844 562.761719 990.398438 570.980469 C 991.335938 579.195312 992.003906 587.433594 992.398438 595.695312 C 992.796875 603.957031 992.921875 612.222656 992.777344 620.492188 C 992.632812 628.761719 992.21875 637.015625 991.535156 645.257812 C 990.847656 653.5 989.894531 661.710938 988.671875 669.890625 C 987.449219 678.070312 985.960938 686.203125 984.207031 694.285156 C 982.453125 702.367188 980.433594 710.382812 978.15625 718.332031 C 975.875 726.285156 973.339844 734.152344 970.542969 741.933594 C 967.75 749.71875 964.703125 757.402344 961.40625 764.988281 C 958.105469 772.574219 954.5625 780.042969 950.777344 787.394531 C 946.992188 794.746094 942.96875 801.96875 938.707031 809.058594 C 934.449219 816.148438 929.960938 823.089844 925.246094 829.882812 C 920.53125 836.679688 915.601562 843.3125 910.453125 849.785156 C 905.304688 856.257812 899.949219 862.558594 894.386719 868.679688 C 888.828125 874.800781 883.074219 880.734375 877.125 886.480469 C 871.171875 892.226562 865.042969 897.769531 858.730469 903.113281 C 852.417969 908.457031 845.9375 913.589844 839.289062 918.507812 C 832.640625 923.429688 825.839844 928.125 818.882812 932.597656 C 811.925781 937.074219 804.832031 941.316406 797.597656 945.324219 C 790.363281 949.335938 783.007812 953.101562 775.527344 956.632812 C 768.046875 960.160156 760.460938 963.4375 752.765625 966.46875 C 745.070312 969.5 737.285156 972.277344 729.40625 974.800781 C 721.53125 977.320312 713.578125 979.582031 705.554688 981.582031 C 697.527344 983.582031 689.445312 985.320312 681.308594 986.792969 C 673.171875 988.261719 664.992188 989.464844 656.773438 990.402344 C 648.558594 991.339844 640.316406 992.003906 632.058594 992.402344 C 623.796875 992.800781 615.53125 992.925781 607.261719 992.78125 L 613.875 613.878906 Z M 945.320312 430.15625 " fill-opacity="1" fill-rule="nonzero"/><path fill="#a1d6be" d="M 607.261719 992.78125 C 598.992188 992.636719 590.734375 992.222656 582.492188 991.539062 C 574.25 990.851562 566.039062 989.898438 557.859375 988.675781 C 549.679688 987.453125 541.550781 985.964844 533.46875 984.210938 C 525.386719 982.457031 517.371094 980.4375 509.417969 978.160156 C 501.46875 975.878906 493.601562 973.339844 485.816406 970.546875 C 478.035156 967.753906 470.347656 964.707031 462.765625 961.40625 C 455.179688 958.109375 447.710938 954.566406 440.359375 950.78125 C 433.007812 946.992188 425.785156 942.96875 418.695312 938.710938 C 411.605469 934.453125 404.664062 929.964844 397.867188 925.25 C 391.074219 920.535156 384.4375 915.605469 377.964844 910.457031 C 371.492188 905.308594 365.195312 899.953125 359.074219 894.390625 C 352.953125 888.832031 347.019531 883.074219 341.273438 877.125 C 335.527344 871.175781 329.984375 865.046875 324.640625 858.734375 C 319.296875 852.421875 314.164062 845.941406 309.246094 839.292969 C 304.324219 832.644531 299.628906 825.84375 295.152344 818.886719 C 290.679688 811.929688 286.4375 804.835938 282.429688 797.601562 C 278.417969 790.367188 274.648438 783.011719 271.121094 775.53125 C 267.59375 768.050781 264.3125 760.464844 261.285156 752.769531 C 258.253906 745.074219 255.476562 737.285156 252.953125 729.410156 C 250.433594 721.53125 248.171875 713.582031 246.171875 705.558594 C 244.171875 697.53125 242.433594 689.449219 240.960938 681.3125 C 239.492188 673.171875 238.285156 664.996094 237.351562 656.777344 C 236.414062 648.558594 235.746094 640.320312 235.351562 632.058594 C 234.953125 623.800781 234.828125 615.535156 234.972656 607.265625 C 235.117188 598.996094 235.53125 590.738281 236.214844 582.496094 C 236.902344 574.253906 237.855469 566.042969 239.078125 557.863281 C 240.300781 549.683594 241.789062 541.554688 243.542969 533.472656 C 245.296875 525.390625 247.316406 517.371094 249.59375 509.421875 C 251.875 501.472656 254.410156 493.605469 257.207031 485.820312 C 260 478.035156 263.046875 470.351562 266.34375 462.769531 C 269.644531 455.183594 273.183594 447.714844 276.972656 440.363281 C 280.757812 433.007812 284.78125 425.789062 289.042969 418.699219 L 613.875 613.878906 Z M 607.261719 992.78125 " fill-opacity="1" fill-rule="nonzero"/><path fill="#f47e53" d="M 289.042969 418.699219 C 293.300781 411.609375 297.789062 404.667969 302.503906 397.871094 C 307.214844 391.078125 312.148438 384.445312 317.296875 377.972656 C 322.445312 371.5 327.796875 365.203125 333.359375 359.082031 C 338.917969 352.957031 344.675781 347.023438 350.625 341.28125 C 356.570312 335.535156 362.703125 329.992188 369.015625 324.648438 C 375.328125 319.304688 381.808594 314.171875 388.453125 309.253906 C 395.101562 304.332031 401.90625 299.636719 408.859375 295.160156 C 415.816406 290.6875 422.910156 286.445312 430.144531 282.4375 C 437.375 278.425781 444.734375 274.65625 452.210938 271.128906 C 459.691406 267.601562 467.28125 264.320312 474.972656 261.289062 C 482.667969 258.257812 490.453125 255.484375 498.332031 252.960938 C 506.207031 250.441406 514.15625 248.179688 522.183594 246.175781 C 530.207031 244.175781 538.289062 242.441406 546.425781 240.96875 C 554.5625 239.496094 562.742188 238.292969 570.957031 237.355469 C 579.175781 236.417969 587.414062 235.75 595.675781 235.355469 C 603.9375 234.957031 612.199219 234.832031 620.46875 234.976562 C 628.738281 235.117188 636.992188 235.53125 645.234375 236.21875 C 653.476562 236.902344 661.6875 237.855469 669.867188 239.078125 C 678.046875 240.296875 686.179688 241.785156 694.261719 243.542969 C 702.34375 245.296875 710.359375 247.3125 718.308594 249.589844 C 726.257812 251.871094 734.125 254.40625 741.910156 257.199219 C 749.691406 259.996094 757.375 263.039062 764.960938 266.339844 C 772.546875 269.636719 780.015625 273.175781 787.367188 276.964844 C 794.71875 280.75 801.941406 284.773438 809.03125 289.03125 C 816.117188 293.289062 823.0625 297.777344 829.855469 302.488281 C 836.652344 307.203125 843.285156 312.132812 849.757812 317.28125 C 856.230469 322.429688 862.53125 327.78125 868.652344 333.34375 C 874.773438 338.902344 880.707031 344.65625 886.453125 350.605469 C 892.199219 356.554688 897.742188 362.683594 903.089844 368.996094 C 908.433594 375.308594 913.5625 381.789062 918.484375 388.433594 C 923.402344 395.082031 928.101562 401.882812 932.574219 408.839844 C 937.050781 415.792969 941.292969 422.886719 945.304688 430.121094 L 613.875 613.878906 Z M 289.042969 418.699219 " fill-opacity="1" fill-rule="nonzero"/></g></g><g clip-path="url(#2e75c98156)"><g clip-path="url(#47728494be)"><g transform="matrix(1, 0, 0, 1, 489, 489)"><g clip-path="url(#454cf08624)"><g clip-path="url(#270304e0ea)"><g clip-path="url(#b912a8a619)"><path fill="#00385c" d="M 0.421875 0.421875 L 249.335938 0.421875 L 249.335938 249.335938 L 0.421875 249.335938 Z M 0.421875 0.421875 " fill-opacity="1" fill-rule="nonzero"/></g></g></g></g></g></g></svg>