<svg xmlns="http://www.w3.org/2000/svg" xmlns:xlink="http://www.w3.org/1999/xlink" width="118" zoomAndPan="magnify" viewBox="0 0 88.5 88.499998" height="118" preserveAspectRatio="xMidYMid meet" version="1.0"><defs><clipPath id="926ff0f289"><path d="M 15.183594 14.484375 L 72.738281 14.484375 L 72.738281 72.035156 L 15.183594 72.035156 Z M 15.183594 14.484375 " clip-rule="nonzero"/></clipPath><clipPath id="f8a902eedd"><path d="M 43.960938 14.484375 C 28.066406 14.484375 15.183594 27.367188 15.183594 43.261719 C 15.183594 59.152344 28.066406 72.035156 43.960938 72.035156 C 59.855469 72.035156 72.738281 59.152344 72.738281 43.261719 C 72.738281 27.367188 59.855469 14.484375 43.960938 14.484375 Z M 43.960938 14.484375 " clip-rule="nonzero"/></clipPath><clipPath id="5a592a5f20"><path d="M 0.183594 0.484375 L 57.738281 0.484375 L 57.738281 58.035156 L 0.183594 58.035156 Z M 0.183594 0.484375 " clip-rule="nonzero"/></clipPath><clipPath id="bf8de41099"><path d="M 28.960938 0.484375 C 13.066406 0.484375 0.183594 13.367188 0.183594 29.261719 C 0.183594 45.152344 13.066406 58.035156 28.960938 58.035156 C 44.855469 58.035156 57.738281 45.152344 57.738281 29.261719 C 57.738281 13.367188 44.855469 0.484375 28.960938 0.484375 Z M 28.960938 0.484375 " clip-rule="nonzero"/></clipPath><clipPath id="d4a65b7a4b"><rect x="0" width="58" y="0" height="59"/></clipPath><clipPath id="8c499cda21"><path d="M 36 3.988281 L 52 3.988281 L 52 38 L 36 38 Z M 36 3.988281 " clip-rule="nonzero"/></clipPath><clipPath id="3253fb7545"><path d="M 36 50 L 52 50 L 52 84.535156 L 36 84.535156 Z M 36 50 " clip-rule="nonzero"/></clipPath><clipPath id="8ea4c797e7"><path d="M 43 3.988281 L 45 3.988281 L 45 84.535156 L 43 84.535156 Z M 43 3.988281 " clip-rule="nonzero"/></clipPath><clipPath id="4ce775ac7f"><path d="M 3.582031 36 L 84.125 36 L 84.125 53 L 3.582031 53 Z M 3.582031 36 " clip-rule="nonzero"/></clipPath><clipPath id="eb36c70cff"><path d="M 3.582031 43 L 84.125 43 L 84.125 46 L 3.582031 46 Z M 3.582031 43 " clip-rule="nonzero"/></clipPath><clipPath id="5a8c28f167"><path d="M 0 0 L 88.003906 0 L 88.003906 88.003906 L 0 88.003906 Z M 0 0 " clip-rule="nonzero"/></clipPath><clipPath id="8d8dd3b6b4"><rect x="0" width="89" y="0" height="89"/></clipPath><clipPath id="364841494c"><path d="M 35.046875 35.046875 L 52.875 35.046875 L 52.875 52.875 L 35.046875 52.875 Z M 35.046875 35.046875 " clip-rule="nonzero"/></clipPath><clipPath id="b0acdc0607"><path d="M 43.960938 35.046875 C 39.039062 35.046875 35.046875 39.039062 35.046875 43.960938 C 35.046875 48.882812 39.039062 52.875 43.960938 52.875 C 48.882812 52.875 52.875 48.882812 52.875 43.960938 C 52.875 39.039062 48.882812 35.046875 43.960938 35.046875 Z M 43.960938 35.046875 " clip-rule="nonzero"/></clipPath><clipPath id="ca75a2cceb"><path d="M 0.046875 0.046875 L 17.875 0.046875 L 17.875 17.875 L 0.046875 17.875 Z M 0.046875 0.046875 " clip-rule="nonzero"/></clipPath><clipPath id="79b2756566"><path d="M 8.960938 0.046875 C 4.039062 0.046875 0.046875 4.039062 0.046875 8.960938 C 0.046875 13.882812 4.039062 17.875 8.960938 17.875 C 13.882812 17.875 17.875 13.882812 17.875 8.960938 C 17.875 4.039062 13.882812 0.046875 8.960938 0.046875 Z M 8.960938 0.046875 " clip-rule="nonzero"/></clipPath><clipPath id="ec2e6b973c"><rect x="0" width="18" y="0" height="18"/></clipPath></defs><g clip-path="url(#926ff0f289)"><g clip-path="url(#f8a902eedd)"><g transform="matrix(1, 0, 0, 1, 15, 14)"><g clip-path="url(#d4a65b7a4b)"><g clip-path="url(#5a592a5f20)"><g clip-path="url(#bf8de41099)"><path fill="#ffffff" d="M 0.183594 0.484375 L 57.738281 0.484375 L 57.738281 58.035156 L 0.183594 58.035156 Z M 0.183594 0.484375 " fill-opacity="1" fill-rule="nonzero"/></g></g></g></g></g></g><g clip-path="url(#8c499cda21)"><path fill="#ffffff" d="M 51.015625 37.96875 C 50.667969 37.96875 50.351562 37.722656 50.273438 37.367188 L 43.90625 8.265625 L 37.542969 37.367188 C 37.453125 37.777344 37.046875 38.042969 36.632812 37.949219 C 36.222656 37.859375 35.960938 37.453125 36.050781 37.042969 L 43.164062 4.539062 C 43.238281 4.1875 43.550781 3.9375 43.90625 3.9375 C 44.265625 3.9375 44.574219 4.1875 44.652344 4.539062 L 51.761719 37.042969 C 51.851562 37.453125 51.589844 37.859375 51.179688 37.949219 C 51.125 37.960938 51.070312 37.96875 51.015625 37.96875 Z M 51.015625 37.96875 " fill-opacity="1" fill-rule="nonzero"/></g><g clip-path="url(#3253fb7545)"><path fill="#ffffff" d="M 43.90625 84.691406 C 43.550781 84.691406 43.238281 84.445312 43.164062 84.09375 L 36.050781 51.589844 C 35.960938 51.179688 36.222656 50.773438 36.632812 50.683594 C 37.042969 50.589844 37.449219 50.851562 37.542969 51.265625 L 43.90625 80.367188 L 50.273438 51.265625 C 50.363281 50.855469 50.773438 50.59375 51.179688 50.683594 C 51.589844 50.773438 51.851562 51.179688 51.761719 51.589844 L 44.652344 84.09375 C 44.574219 84.445312 44.265625 84.691406 43.90625 84.691406 Z M 43.90625 84.691406 " fill-opacity="1" fill-rule="nonzero"/></g><g clip-path="url(#8ea4c797e7)"><path fill="#ffffff" d="M 43.90625 84.691406 C 43.488281 84.691406 43.144531 84.351562 43.144531 83.929688 L 43.144531 4.699219 C 43.144531 4.28125 43.488281 3.9375 43.90625 3.9375 C 44.328125 3.9375 44.667969 4.28125 44.667969 4.699219 L 44.667969 83.929688 C 44.667969 84.351562 44.328125 84.691406 43.90625 84.691406 Z M 43.90625 84.691406 " fill-opacity="1" fill-rule="nonzero"/></g><g clip-path="url(#4ce775ac7f)"><path fill="#ffffff" d="M 51.015625 52.1875 C 50.816406 52.1875 50.625 52.109375 50.480469 51.964844 L 43.90625 45.394531 L 37.335938 51.964844 C 37.152344 52.148438 36.886719 52.226562 36.632812 52.171875 L 4.128906 45.058594 C 3.777344 44.984375 3.53125 44.675781 3.53125 44.316406 C 3.53125 43.957031 3.777344 43.648438 4.128906 43.570312 L 36.632812 36.460938 C 36.886719 36.40625 37.152344 36.484375 37.335938 36.667969 L 43.90625 43.238281 L 50.480469 36.667969 C 50.660156 36.484375 50.925781 36.40625 51.179688 36.460938 L 83.683594 43.570312 C 84.035156 43.648438 84.285156 43.957031 84.285156 44.316406 C 84.285156 44.675781 84.035156 44.984375 83.683594 45.058594 L 51.179688 52.171875 C 51.125 52.183594 51.070312 52.1875 51.015625 52.1875 Z M 44.984375 44.316406 L 51.261719 50.59375 L 79.957031 44.316406 L 51.261719 38.039062 Z M 7.855469 44.316406 L 36.550781 50.59375 L 42.828125 44.316406 L 36.550781 38.039062 Z M 7.855469 44.316406 " fill-opacity="1" fill-rule="nonzero"/></g><g clip-path="url(#eb36c70cff)"><path fill="#ffffff" d="M 83.523438 45.078125 L 4.292969 45.078125 C 3.871094 45.078125 3.53125 44.738281 3.53125 44.316406 C 3.53125 43.894531 3.871094 43.554688 4.292969 43.554688 L 83.523438 43.554688 C 83.941406 43.554688 84.285156 43.894531 84.285156 44.316406 C 84.285156 44.738281 83.941406 45.078125 83.523438 45.078125 Z M 83.523438 45.078125 " fill-opacity="1" fill-rule="nonzero"/></g><path fill="#ffffff" d="M 56.15625 39.09375 C 56.035156 39.09375 55.914062 39.066406 55.800781 39.007812 C 55.429688 38.808594 55.289062 38.347656 55.484375 37.976562 L 61.375 26.847656 L 50.246094 32.738281 C 49.875 32.933594 49.414062 32.792969 49.214844 32.421875 C 49.019531 32.050781 49.160156 31.589844 49.535156 31.390625 L 62.851562 24.34375 C 63.144531 24.1875 63.507812 24.242188 63.746094 24.476562 C 63.980469 24.714844 64.035156 25.078125 63.878906 25.371094 L 56.832031 38.6875 C 56.695312 38.949219 56.429688 39.09375 56.15625 39.09375 Z M 56.15625 39.09375 " fill-opacity="1" fill-rule="nonzero"/><path fill="#ffffff" d="M 31.65625 39.09375 C 31.382812 39.09375 31.121094 38.949219 30.984375 38.6875 L 23.933594 25.371094 C 23.777344 25.078125 23.832031 24.714844 24.070312 24.476562 C 24.304688 24.242188 24.667969 24.1875 24.964844 24.34375 L 38.28125 31.390625 C 38.652344 31.589844 38.792969 32.050781 38.597656 32.421875 C 38.402344 32.792969 37.9375 32.933594 37.566406 32.738281 L 26.4375 26.847656 L 32.332031 37.976562 C 32.527344 38.347656 32.382812 38.808594 32.011719 39.007812 C 31.898438 39.066406 31.777344 39.09375 31.65625 39.09375 Z M 31.65625 39.09375 " fill-opacity="1" fill-rule="nonzero"/><path fill="#ffffff" d="M 24.605469 64.378906 C 24.410156 64.378906 24.214844 64.300781 24.070312 64.15625 C 23.832031 63.917969 23.777344 63.554688 23.933594 63.257812 L 30.984375 49.941406 C 31.179688 49.570312 31.644531 49.429688 32.011719 49.625 C 32.382812 49.824219 32.527344 50.285156 32.332031 50.65625 L 26.4375 61.785156 L 37.566406 55.894531 C 37.9375 55.699219 38.402344 55.839844 38.597656 56.210938 C 38.792969 56.582031 38.652344 57.042969 38.28125 57.238281 L 24.964844 64.289062 C 24.851562 64.347656 24.730469 64.378906 24.605469 64.378906 Z M 24.605469 64.378906 " fill-opacity="1" fill-rule="nonzero"/><path fill="#ffffff" d="M 63.207031 64.378906 C 63.085938 64.378906 62.960938 64.347656 62.851562 64.289062 L 49.535156 57.238281 C 49.160156 57.042969 49.019531 56.582031 49.214844 56.210938 C 49.414062 55.839844 49.875 55.699219 50.246094 55.894531 L 61.375 61.785156 L 55.484375 50.65625 C 55.289062 50.285156 55.429688 49.824219 55.800781 49.625 C 56.171875 49.429688 56.632812 49.570312 56.832031 49.941406 L 63.878906 63.257812 C 64.035156 63.554688 63.980469 63.917969 63.746094 64.15625 C 63.597656 64.300781 63.402344 64.378906 63.207031 64.378906 Z M 63.207031 64.378906 " fill-opacity="1" fill-rule="nonzero"/><path fill="#ffffff" d="M 77.480469 36.953125 C 77.136719 36.953125 76.824219 36.71875 76.742188 36.367188 C 75.289062 30.347656 72.195312 24.839844 67.789062 20.433594 C 63.386719 16.027344 57.875 12.933594 51.855469 11.480469 C 51.445312 11.382812 51.195312 10.972656 51.292969 10.5625 C 51.390625 10.152344 51.804688 9.902344 52.210938 10 C 58.503906 11.519531 64.265625 14.753906 68.867188 19.355469 C 73.46875 23.960938 76.707031 29.71875 78.222656 36.011719 C 78.320312 36.421875 78.070312 36.832031 77.660156 36.929688 C 77.601562 36.945312 77.539062 36.953125 77.480469 36.953125 Z M 77.480469 36.953125 " fill-opacity="1" fill-rule="nonzero"/><path fill="#ffffff" d="M 10.332031 36.953125 C 10.273438 36.953125 10.214844 36.945312 10.152344 36.929688 C 9.746094 36.832031 9.492188 36.421875 9.589844 36.011719 C 11.109375 29.71875 14.34375 23.960938 18.949219 19.355469 C 23.550781 14.753906 29.308594 11.519531 35.601562 10 C 36.015625 9.902344 36.421875 10.152344 36.519531 10.5625 C 36.621094 10.972656 36.367188 11.382812 35.960938 11.480469 C 29.9375 12.933594 24.429688 16.027344 20.023438 20.433594 C 15.621094 24.839844 12.523438 30.347656 11.074219 36.367188 C 10.988281 36.71875 10.675781 36.953125 10.332031 36.953125 Z M 10.332031 36.953125 " fill-opacity="1" fill-rule="nonzero"/><path fill="#ffffff" d="M 35.78125 78.652344 C 35.722656 78.652344 35.664062 78.644531 35.601562 78.632812 C 29.308594 77.113281 23.550781 73.878906 18.949219 69.277344 C 14.34375 64.671875 11.109375 58.914062 9.589844 52.621094 C 9.492188 52.210938 9.746094 51.800781 10.152344 51.703125 C 10.566406 51.605469 10.972656 51.855469 11.074219 52.261719 C 12.523438 58.285156 15.621094 63.792969 20.023438 68.199219 C 24.429688 72.601562 29.9375 75.699219 35.960938 77.148438 C 36.367188 77.25 36.621094 77.660156 36.519531 78.070312 C 36.4375 78.417969 36.125 78.652344 35.78125 78.652344 Z M 35.78125 78.652344 " fill-opacity="1" fill-rule="nonzero"/><path fill="#ffffff" d="M 52.03125 78.652344 C 51.6875 78.652344 51.375 78.417969 51.292969 78.070312 C 51.195312 77.660156 51.445312 77.25 51.855469 77.148438 C 57.875 75.699219 63.386719 72.601562 67.789062 68.199219 C 72.195312 63.792969 75.289062 58.285156 76.742188 52.261719 C 76.839844 51.855469 77.253906 51.605469 77.660156 51.703125 C 78.070312 51.800781 78.320312 52.210938 78.222656 52.621094 C 76.707031 58.914062 73.46875 64.671875 68.867188 69.277344 C 64.265625 73.878906 58.503906 77.113281 52.210938 78.632812 C 52.152344 78.644531 52.09375 78.652344 52.03125 78.652344 Z M 52.03125 78.652344 " fill-opacity="1" fill-rule="nonzero"/><g clip-path="url(#5a8c28f167)"><g transform="matrix(1, 0, 0, 1, 0, 0.000000000000004895)"><g clip-path="url(#8d8dd3b6b4)"><path fill="#ecc8c1" d="M 67.695312 30.804688 C 67.980469 31.324219 68.253906 31.847656 68.503906 32.386719 C 68.757812 32.921875 68.992188 33.464844 69.210938 34.015625 C 69.425781 34.566406 69.625 35.125 69.804688 35.6875 C 69.988281 36.253906 70.148438 36.820312 70.292969 37.394531 C 70.433594 37.972656 70.558594 38.550781 70.664062 39.132812 C 70.769531 39.714844 70.855469 40.300781 70.921875 40.890625 C 70.992188 41.476562 71.039062 42.066406 71.066406 42.660156 C 71.09375 43.25 71.105469 43.84375 71.09375 44.433594 C 71.082031 45.027344 71.054688 45.617188 71.003906 46.207031 C 70.957031 46.800781 70.886719 47.386719 70.800781 47.972656 C 70.710938 48.558594 70.605469 49.140625 70.480469 49.71875 C 70.355469 50.296875 70.210938 50.871094 70.046875 51.441406 C 69.882812 52.011719 69.703125 52.574219 69.5 53.132812 C 69.300781 53.6875 69.082031 54.238281 68.847656 54.78125 C 68.609375 55.324219 68.355469 55.859375 68.085938 56.386719 C 67.816406 56.914062 67.527344 57.429688 67.222656 57.9375 C 66.917969 58.445312 66.59375 58.945312 66.257812 59.429688 C 65.921875 59.917969 65.566406 60.390625 65.199219 60.855469 C 64.828125 61.320312 64.445312 61.769531 64.046875 62.207031 C 63.648438 62.648438 63.238281 63.070312 62.8125 63.484375 C 62.386719 63.894531 61.945312 64.292969 61.496094 64.675781 C 61.042969 65.058594 60.578125 65.425781 60.101562 65.777344 C 59.625 66.128906 59.140625 66.464844 58.640625 66.785156 C 58.140625 67.105469 57.632812 67.410156 57.117188 67.695312 C 56.597656 67.984375 56.070312 68.253906 55.535156 68.507812 C 55 68.757812 54.457031 68.996094 53.90625 69.210938 C 53.355469 69.429688 52.796875 69.628906 52.234375 69.808594 C 51.667969 69.988281 51.101562 70.148438 50.523438 70.292969 C 49.949219 70.4375 49.371094 70.5625 48.789062 70.667969 C 48.207031 70.773438 47.621094 70.859375 47.03125 70.925781 C 46.441406 70.992188 45.851562 71.039062 45.261719 71.070312 C 44.671875 71.097656 44.078125 71.105469 43.484375 71.09375 L 43.960938 43.960938 Z M 67.695312 30.804688 " fill-opacity="1" fill-rule="nonzero"/><path fill="#a1d6be" d="M 43.484375 71.09375 C 42.894531 71.085938 42.300781 71.054688 41.710938 71.007812 C 41.121094 70.957031 40.535156 70.890625 39.949219 70.800781 C 39.363281 70.714844 38.78125 70.609375 38.203125 70.480469 C 37.621094 70.355469 37.046875 70.210938 36.480469 70.046875 C 35.910156 69.886719 35.347656 69.703125 34.789062 69.503906 C 34.230469 69.304688 33.679688 69.085938 33.136719 68.847656 C 32.59375 68.613281 32.058594 68.359375 31.535156 68.085938 C 31.007812 67.816406 30.488281 67.527344 29.980469 67.222656 C 29.476562 66.917969 28.976562 66.597656 28.492188 66.257812 C 28.003906 65.921875 27.527344 65.570312 27.066406 65.199219 C 26.601562 64.832031 26.152344 64.449219 25.710938 64.050781 C 25.273438 63.652344 24.847656 63.238281 24.4375 62.8125 C 24.027344 62.386719 23.628906 61.949219 23.246094 61.496094 C 22.863281 61.042969 22.496094 60.578125 22.144531 60.105469 C 21.792969 59.628906 21.457031 59.140625 21.136719 58.644531 C 20.816406 58.144531 20.511719 57.636719 20.222656 57.117188 C 19.9375 56.601562 19.667969 56.074219 19.414062 55.539062 C 19.160156 55.003906 18.925781 54.457031 18.710938 53.90625 C 18.492188 53.355469 18.292969 52.800781 18.113281 52.234375 C 17.933594 51.671875 17.769531 51.101562 17.628906 50.527344 C 17.484375 49.953125 17.359375 49.375 17.253906 48.789062 C 17.148438 48.207031 17.0625 47.621094 16.996094 47.035156 C 16.929688 46.445312 16.882812 45.855469 16.851562 45.261719 C 16.824219 44.671875 16.816406 44.078125 16.824219 43.488281 C 16.835938 42.894531 16.867188 42.304688 16.914062 41.714844 C 16.964844 41.125 17.03125 40.535156 17.121094 39.949219 C 17.207031 39.363281 17.3125 38.78125 17.4375 38.203125 C 17.566406 37.625 17.710938 37.050781 17.871094 36.480469 C 18.035156 35.910156 18.21875 35.347656 18.417969 34.792969 C 18.617188 34.234375 18.835938 33.683594 19.070312 33.140625 C 19.308594 32.597656 19.5625 32.0625 19.832031 31.535156 C 20.105469 31.007812 20.394531 30.492188 20.699219 29.984375 L 43.960938 43.960938 Z M 43.484375 71.09375 " fill-opacity="1" fill-rule="nonzero"/><path fill="#f47e53" d="M 20.699219 29.984375 C 21.003906 29.476562 21.324219 28.980469 21.660156 28.492188 C 22 28.007812 22.351562 27.53125 22.722656 27.066406 C 23.089844 26.605469 23.472656 26.152344 23.871094 25.714844 C 24.269531 25.277344 24.679688 24.851562 25.109375 24.441406 C 25.535156 24.027344 25.972656 23.632812 26.425781 23.25 C 26.875 22.867188 27.339844 22.5 27.816406 22.148438 C 28.292969 21.792969 28.78125 21.457031 29.277344 21.136719 C 29.777344 20.816406 30.285156 20.511719 30.800781 20.226562 C 31.320312 19.9375 31.847656 19.667969 32.382812 19.417969 C 32.917969 19.164062 33.460938 18.929688 34.011719 18.710938 C 34.5625 18.496094 35.121094 18.296875 35.683594 18.117188 C 36.25 17.933594 36.820312 17.773438 37.394531 17.628906 C 37.96875 17.488281 38.546875 17.363281 39.128906 17.257812 C 39.710938 17.152344 40.296875 17.066406 40.886719 16.996094 C 41.476562 16.929688 42.066406 16.882812 42.65625 16.855469 C 43.246094 16.824219 43.839844 16.816406 44.433594 16.828125 C 45.023438 16.835938 45.613281 16.867188 46.207031 16.917969 C 46.796875 16.964844 47.382812 17.035156 47.96875 17.121094 C 48.554688 17.207031 49.136719 17.316406 49.714844 17.441406 C 50.296875 17.566406 50.867188 17.710938 51.4375 17.875 C 52.007812 18.039062 52.570312 18.21875 53.128906 18.417969 C 53.6875 18.621094 54.234375 18.835938 54.777344 19.074219 C 55.324219 19.308594 55.855469 19.5625 56.382812 19.835938 C 56.910156 20.105469 57.425781 20.394531 57.933594 20.699219 C 58.441406 21.003906 58.941406 21.324219 59.425781 21.664062 C 59.914062 22 60.386719 22.351562 60.851562 22.722656 C 61.316406 23.089844 61.765625 23.472656 62.203125 23.871094 C 62.644531 24.269531 63.066406 24.683594 63.480469 25.109375 C 63.890625 25.535156 64.289062 25.972656 64.671875 26.425781 C 65.054688 26.878906 65.421875 27.339844 65.773438 27.816406 C 66.125 28.292969 66.460938 28.78125 66.78125 29.277344 C 67.101562 29.777344 67.40625 30.285156 67.695312 30.800781 L 43.960938 43.960938 Z M 20.699219 29.984375 " fill-opacity="1" fill-rule="nonzero"/></g></g></g><g clip-path="url(#364841494c)"><g clip-path="url(#b0acdc0607)"><g transform="matrix(1, 0, 0, 1, 35, 35)"><g clip-path="url(#ec2e6b973c)"><g clip-path="url(#ca75a2cceb)"><g clip-path="url(#79b2756566)"><path fill="#00385c" d="M 0.046875 0.046875 L 17.875 0.046875 L 17.875 17.875 L 0.046875 17.875 Z M 0.046875 0.046875 " fill-opacity="1" fill-rule="nonzero"/></g></g></g></g></g></g></svg>