<svg xmlns="http://www.w3.org/2000/svg" viewBox="0 0 1280 480" width="1280" height="480">
  <defs>
    <style>
      .text-primary { fill: #212121; font-family: -apple-system, BlinkMacSystemFont, 'Segoe UI', sans-serif; }
      .text-secondary { fill: #757575; font-family: -apple-system, BlinkMacSystemFont, 'Segoe UI', sans-serif; }
      .text-inverse { fill: #FFFFFF; font-family: -apple-system, BlinkMacSystemFont, 'Segoe UI', sans-serif; }
      .label { fill: #757575; font-family: 'SF Mono', Monaco, Consolas, monospace; font-size: 11px; }
    </style>
    <marker id="arrow" viewBox="0 0 10 10" refX="9" refY="5" markerWidth="8" markerHeight="8" orient="auto-start-reverse">
      <path d="M 0 0 L 10 5 L 0 10 z" fill="#424242"/>
    </marker>
    <marker id="arrow-s" viewBox="0 0 10 10" refX="9" refY="5" markerWidth="8" markerHeight="8" orient="auto-start-reverse">
      <path d="M 0 0 L 10 5 L 0 10 z" fill="#BDBDBD"/>
    </marker>
  </defs>

  <rect width="1280" height="480" fill="#F5F5F5"/>

  <!-- Title -->
  <text x="32" y="40" class="text-primary" font-size="20" font-weight="700">Architecture Overview</text>
  <text x="32" y="64" class="text-secondary" font-size="13">Three-tier design with file system persistence</text>

  <!-- Three layers side-by-side -->

  <!-- ==================== BROWSER UI ==================== -->
  <g transform="translate(32, 96)">
    <rect width="340" height="300" rx="8" fill="#FFFFFF" stroke="#424242" stroke-width="2"/>
    <rect width="340" height="36" rx="8" fill="#424242"/>
    <rect x="0" y="20" width="340" height="16" fill="#424242"/>
    <text x="170" y="25" text-anchor="middle" class="text-inverse" font-size="13" font-weight="600">Browser UI</text>

    <text x="20" y="60" class="text-secondary" font-size="12">Vanilla TypeScript SPA</text>
    <text x="20" y="80" class="text-secondary" font-size="12">History API routing (6 screens)</text>
    <text x="20" y="100" class="text-secondary" font-size="12">CSS custom properties (light/dark)</text>
    <text x="20" y="120" class="text-secondary" font-size="12">Typed fetch wrapper</text>

    <line x1="20" y1="136" x2="320" y2="136" stroke="#E0E0E0" stroke-width="1"/>

    <text x="20" y="158" class="label">ui/src/</text>
    <text x="20" y="176" class="label">├── screens/</text>
    <text x="20" y="194" class="label">│   picker, init, unlock, manage,</text>
    <text x="20" y="212" class="label">│   recovery-key, recover</text>
    <text x="20" y="230" class="label">├── components/theme-toggle.ts</text>
    <text x="20" y="248" class="label">├── router.ts    (SPA routing)</text>
    <text x="20" y="266" class="label">├── api.ts       (fetch wrapper)</text>
    <text x="20" y="284" class="label">└── theme.ts     (CSS vars)</text>
  </g>

  <!-- Arrow: UI → API -->
  <line x1="372" y1="246" x2="436" y2="246" stroke="#424242" stroke-width="1.5" marker-end="url(#arrow)"/>
  <text x="380" y="238" class="label">fetch()</text>

  <!-- ==================== HTTP API ==================== -->
  <g transform="translate(438, 96)">
    <rect width="340" height="300" rx="8" fill="#FFFFFF" stroke="#424242" stroke-width="2"/>
    <rect width="340" height="36" rx="8" fill="#424242"/>
    <rect x="0" y="20" width="340" height="16" fill="#424242"/>
    <text x="170" y="25" text-anchor="middle" class="text-inverse" font-size="13" font-weight="600">HTTP API</text>

    <text x="20" y="60" class="text-secondary" font-size="12">Bun.serve() on port 3000</text>
    <text x="20" y="80" class="text-secondary" font-size="12">REST under /api/vaults</text>
    <text x="20" y="100" class="text-secondary" font-size="12">JSON envelope { success, data }</text>
    <text x="20" y="120" class="text-secondary" font-size="12">Status: 200, 400, 404, 409, 423</text>

    <line x1="20" y1="136" x2="320" y2="136" stroke="#E0E0E0" stroke-width="1"/>

    <text x="20" y="158" class="label">src/http/vault-router.ts</text>
    <text x="20" y="176" class="label">serve.ts (dev server + hot reload)</text>

    <line x1="20" y1="192" x2="320" y2="192" stroke="#E0E0E0" stroke-width="1"/>
    <text x="20" y="212" class="text-secondary" font-size="11" font-weight="500">Endpoint groups:</text>
    <text x="20" y="230" class="label">Vault lifecycle (create/delete/lock/unlock)</text>
    <text x="20" y="248" class="label">Secret CRUD (get/set/delete/list)</text>
    <text x="20" y="266" class="label">Groups (create/rename/delete/reorder)</text>
    <text x="20" y="284" class="label">Import (.env preview + confirm)</text>
  </g>

  <!-- Arrow: API → Core -->
  <line x1="778" y1="246" x2="842" y2="246" stroke="#424242" stroke-width="1.5" marker-end="url(#arrow)"/>
  <text x="786" y="238" class="label">method calls</text>

  <!-- ==================== CRYPTO CORE ==================== -->
  <g transform="translate(844, 96)">
    <rect width="340" height="300" rx="8" fill="#FFFFFF" stroke="#424242" stroke-width="2"/>
    <rect width="340" height="36" rx="8" fill="#424242"/>
    <rect x="0" y="20" width="340" height="16" fill="#424242"/>
    <text x="170" y="25" text-anchor="middle" class="text-inverse" font-size="13" font-weight="600">Crypto Core</text>

    <text x="20" y="60" class="text-secondary" font-size="12">AES-256-GCM authenticated encryption</text>
    <text x="20" y="80" class="text-secondary" font-size="12">Scrypt KDF (cost 16384)</text>
    <text x="20" y="100" class="text-secondary" font-size="12">Key wrapping (PK/RK → VK)</text>
    <text x="20" y="120" class="text-secondary" font-size="12">Atomic writes (tmp + rename)</text>

    <line x1="20" y1="136" x2="320" y2="136" stroke="#E0E0E0" stroke-width="1"/>

    <text x="20" y="158" class="label">crypto.ts      (encrypt/decrypt/KDF)</text>
    <text x="20" y="176" class="label">store.ts       (SecretsStore class)</text>
    <text x="20" y="194" class="label">vault-manager.ts (multi-vault)</text>
    <text x="20" y="212" class="label">recovery.ts    (BIP39/QR/key gen)</text>
    <text x="20" y="230" class="label">groups.ts      (group/order logic)</text>
    <text x="20" y="248" class="label">import.ts      (.env parser)</text>
    <text x="20" y="266" class="label">password-file.ts (0o600 perms)</text>
    <text x="20" y="284" class="label">types.ts       (interfaces)</text>
  </g>

  <!-- File System annotation -->
  <g transform="translate(1196, 246)">
    <line x1="-8" y1="0" x2="-30" y2="0" stroke="#BDBDBD" stroke-width="1.5" stroke-dasharray="4,3" marker-start="url(#arrow-s)"/>
    <rect x="0" y="-32" width="72" height="64" rx="6" fill="#FFFFFF" stroke="#BDBDBD" stroke-width="1.5" stroke-dasharray="4,3"/>
    <text x="36" y="-10" text-anchor="middle" class="text-secondary" font-size="11" font-weight="500">File</text>
    <text x="36" y="6" text-anchor="middle" class="text-secondary" font-size="11" font-weight="500">System</text>
    <text x="36" y="24" text-anchor="middle" class="label">.vault .pass</text>
  </g>

  <!-- Legend -->
  <g transform="translate(32, 440)">
    <line x1="0" y1="0" x2="24" y2="0" stroke="#424242" stroke-width="1.5" marker-end="url(#arrow)"/>
    <text x="32" y="4" class="label">Data flow</text>
    <line x1="120" y1="0" x2="144" y2="0" stroke="#BDBDBD" stroke-width="1.5" stroke-dasharray="4,3" marker-end="url(#arrow-s)"/>
    <text x="152" y="4" class="label">Persistence</text>
  </g>
</svg>