<svg xmlns="http://www.w3.org/2000/svg" viewBox="0 0 375 1620" width="375" height="1620">
  <defs>
    <style>
      .text-primary   { fill: #212121; font-family: -apple-system, BlinkMacSystemFont, 'Segoe UI', sans-serif; }
      .text-secondary  { fill: #616161; font-family: -apple-system, BlinkMacSystemFont, 'Segoe UI', sans-serif; }
      .text-tertiary   { fill: #9E9E9E; font-family: -apple-system, BlinkMacSystemFont, 'Segoe UI', sans-serif; }
      .text-inverse    { fill: #FFFFFF; font-family: -apple-system, BlinkMacSystemFont, 'Segoe UI', sans-serif; }
    </style>
  </defs>

  <!-- Background -->
  <rect width="375" height="1620" fill="#F5F5F5"/>

  <!-- ==================== TOP BAR ==================== -->
  <rect width="375" height="56" fill="#FFFFFF" stroke="#E0E0E0" stroke-width="1" y="0"/>

  <!-- Wordmark: tkr-deploy -->
  <text x="16" y="35" class="text-primary" font-size="17" font-weight="700" letter-spacing="-0.3">tkr-deploy</text>

  <!-- Vault status indicator (right side) -->
  <!-- Lock icon (unlocked) -->
  <g transform="translate(270, 18)">
    <rect x="0" y="7" width="16" height="12" rx="2" fill="none" stroke="#616161" stroke-width="1.5"/>
    <path d="M3,7 L3,3 Q3,0 8,0 Q13,0 13,3" fill="none" stroke="#616161" stroke-width="1.5" stroke-linecap="round"/>
    <circle cx="8" cy="13" r="2" fill="#616161"/>
  </g>
  <text x="292" y="31" class="text-secondary" font-size="11">tkr-secrets</text>
  <!-- status dot: connected = dark -->
  <circle cx="262" cy="28" r="4" fill="#212121"/>

  <!-- ==================== PILL NAV BAR ==================== -->
  <rect y="56" width="375" height="44" fill="#FFFFFF" stroke="#E0E0E0" stroke-width="1"/>

  <!-- Overview (inactive) -->
  <text x="12" y="83" class="text-secondary" font-size="12">Overview</text>

  <!-- Secrets (inactive) -->
  <text x="82" y="83" class="text-secondary" font-size="12">Secrets</text>

  <!-- Database pill (active) -->
  <g transform="translate(139, 67)">
    <rect width="70" height="24" rx="12" fill="#424242"/>
    <text x="35" y="16.5" text-anchor="middle" class="text-inverse" font-size="12" font-weight="500">Database</text>
  </g>

  <!-- Frontend (inactive) -->
  <text x="221" y="83" class="text-secondary" font-size="12">Frontend</text>

  <!-- Email (inactive) -->
  <text x="283" y="83" class="text-secondary" font-size="12">Email</text>

  <!-- CI/CD partially visible to signal scroll -->
  <text x="330" y="83" class="text-secondary" font-size="12">CI/</text>

  <!-- ==================== CONNECTION STATUS CARD ==================== -->
  <g transform="translate(12, 116)">
    <rect width="351" height="108" rx="8" fill="#FFFFFF" stroke="#E5E4E0" stroke-width="1"/>

    <!-- Card header row: title + connected badge -->
    <text x="16" y="26" class="text-primary" font-size="13" font-weight="600">Connection Status</text>

    <!-- Connected status badge -->
    <rect x="246" y="12" width="89" height="20" rx="10" fill="#E0E0E0"/>
    <circle cx="261" cy="22" r="4" fill="#212121"/>
    <text x="270" y="26" class="text-primary" font-size="11" font-weight="600">Connected</text>

    <!-- Divider -->
    <line x1="16" y1="38" x2="335" y2="38" stroke="#E0E0E0" stroke-width="1"/>

    <!-- Project ref row -->
    <text x="16" y="58" class="text-tertiary" font-size="10" letter-spacing="0.4">PROJECT REF</text>
    <text x="105" y="58" class="text-secondary" font-size="11">xyzabcdef123456</text>

    <!-- Region row -->
    <text x="16" y="76" class="text-tertiary" font-size="10" letter-spacing="0.4">REGION</text>
    <text x="105" y="76" class="text-secondary" font-size="11">ca-central-1</text>

    <!-- DB version row -->
    <text x="16" y="94" class="text-tertiary" font-size="10" letter-spacing="0.4">DB VERSION</text>
    <text x="105" y="94" class="text-secondary" font-size="11">PostgreSQL 15.6</text>
  </g>

  <!-- ==================== MIGRATIONS SECTION ==================== -->
  <!-- Section header row -->
  <g transform="translate(12, 240)">
    <!-- Section label -->
    <text x="0" y="16" class="text-secondary" font-size="12" font-weight="600" letter-spacing="0.3">MIGRATIONS</text>

    <!-- Count badge: 20/24 applied -->
    <rect x="92" y="3" width="72" height="18" rx="9" fill="#E0E0E0"/>
    <text x="128" y="16" text-anchor="middle" class="text-secondary" font-size="10" font-weight="600">20/24 applied</text>

    <!-- Push Pending button -->
    <rect x="223" y="1" width="110" height="26" rx="6" fill="#424242"/>
    <text x="278" y="19" text-anchor="middle" class="text-inverse" font-size="12" font-weight="500">Push Pending</text>
  </g>

  <!-- Migrations card — list of last 8 migrations, 4 pending at bottom -->
  <g transform="translate(12, 268)">
    <rect width="351" height="360" rx="8" fill="#FFFFFF" stroke="#E5E4E0" stroke-width="1"/>

    <!-- Applied migration row 1 -->
    <g transform="translate(0, 0)">
      <!-- checkmark icon -->
      <g transform="translate(14, 14)">
        <circle cx="7" cy="7" r="7" fill="none" stroke="#9E9E9E" stroke-width="1.5"/>
        <path d="M4,7 L6.5,9.5 L11,5" fill="none" stroke="#9E9E9E" stroke-width="1.5" stroke-linecap="round" stroke-linejoin="round"/>
      </g>
      <text x="36" y="23" class="text-tertiary" font-size="11">00000000000017_pgvector_extension.sql</text>
      <text x="320" y="23" text-anchor="end" class="text-tertiary" font-size="10">Mar 1</text>
      <line x1="16" y1="38" x2="335" y2="38" stroke="#E0E0E0" stroke-width="1"/>
    </g>

    <!-- Applied migration row 2 -->
    <g transform="translate(0, 38)">
      <g transform="translate(14, 14)">
        <circle cx="7" cy="7" r="7" fill="none" stroke="#9E9E9E" stroke-width="1.5"/>
        <path d="M4,7 L6.5,9.5 L11,5" fill="none" stroke="#9E9E9E" stroke-width="1.5" stroke-linecap="round" stroke-linejoin="round"/>
      </g>
      <text x="36" y="23" class="text-tertiary" font-size="11">00000000000018_dialogue_embeddings.sql</text>
      <text x="320" y="23" text-anchor="end" class="text-tertiary" font-size="10">Mar 2</text>
      <line x1="16" y1="38" x2="335" y2="38" stroke="#E0E0E0" stroke-width="1"/>
    </g>

    <!-- Applied migration row 3 -->
    <g transform="translate(0, 76)">
      <g transform="translate(14, 14)">
        <circle cx="7" cy="7" r="7" fill="none" stroke="#9E9E9E" stroke-width="1.5"/>
        <path d="M4,7 L6.5,9.5 L11,5" fill="none" stroke="#9E9E9E" stroke-width="1.5" stroke-linecap="round" stroke-linejoin="round"/>
      </g>
      <text x="36" y="23" class="text-tertiary" font-size="11">00000000000019_safe_segment_scores.sql</text>
      <text x="320" y="23" text-anchor="end" class="text-tertiary" font-size="10">Mar 3</text>
      <line x1="16" y1="38" x2="335" y2="38" stroke="#E0E0E0" stroke-width="1"/>
    </g>

    <!-- Applied migration row 4 -->
    <g transform="translate(0, 114)">
      <g transform="translate(14, 14)">
        <circle cx="7" cy="7" r="7" fill="none" stroke="#9E9E9E" stroke-width="1.5"/>
        <path d="M4,7 L6.5,9.5 L11,5" fill="none" stroke="#9E9E9E" stroke-width="1.5" stroke-linecap="round" stroke-linejoin="round"/>
      </g>
      <text x="36" y="23" class="text-tertiary" font-size="11">00000000000020_survey_recipients.sql</text>
      <text x="320" y="23" text-anchor="end" class="text-tertiary" font-size="10">Mar 4</text>
      <line x1="16" y1="38" x2="335" y2="38" stroke="#E0E0E0" stroke-width="1"/>
    </g>

    <!-- Pending migration rows — #212121 text, left border accent -->
    <!-- Pending row 1 -->
    <g transform="translate(0, 152)">
      <!-- left border accent for pending -->
      <rect x="0" y="0" width="3" height="52" rx="0" fill="#424242"/>
      <!-- pending circle icon -->
      <g transform="translate(14, 14)">
        <circle cx="7" cy="7" r="7" fill="none" stroke="#424242" stroke-width="1.5"/>
        <circle cx="7" cy="7" r="2.5" fill="#424242"/>
      </g>
      <text x="36" y="23" class="text-primary" font-size="11" font-weight="500">00000000000021_report_pipeline.sql</text>
      <text x="36" y="38" class="text-tertiary" font-size="10">pending</text>
      <line x1="16" y1="52" x2="335" y2="52" stroke="#E0E0E0" stroke-width="1"/>
    </g>

    <!-- Pending row 2 -->
    <g transform="translate(0, 204)">
      <rect x="0" y="0" width="3" height="52" rx="0" fill="#424242"/>
      <g transform="translate(14, 14)">
        <circle cx="7" cy="7" r="7" fill="none" stroke="#424242" stroke-width="1.5"/>
        <circle cx="7" cy="7" r="2.5" fill="#424242"/>
      </g>
      <text x="36" y="23" class="text-primary" font-size="11" font-weight="500">00000000000022_role_filtered_access.sql</text>
      <text x="36" y="38" class="text-tertiary" font-size="10">pending</text>
      <line x1="16" y1="52" x2="335" y2="52" stroke="#E0E0E0" stroke-width="1"/>
    </g>

    <!-- Pending row 3 -->
    <g transform="translate(0, 256)">
      <rect x="0" y="0" width="3" height="52" rx="0" fill="#424242"/>
      <g transform="translate(14, 14)">
        <circle cx="7" cy="7" r="7" fill="none" stroke="#424242" stroke-width="1.5"/>
        <circle cx="7" cy="7" r="2.5" fill="#424242"/>
      </g>
      <text x="36" y="23" class="text-primary" font-size="11" font-weight="500">00000000000023_pgvector_ivfflat.sql</text>
      <text x="36" y="38" class="text-tertiary" font-size="10">pending</text>
      <line x1="16" y1="52" x2="335" y2="52" stroke="#E0E0E0" stroke-width="1"/>
    </g>

    <!-- Pending row 4 -->
    <g transform="translate(0, 308)">
      <rect x="0" y="0" width="3" height="52" rx="0" fill="#424242"/>
      <g transform="translate(14, 14)">
        <circle cx="7" cy="7" r="7" fill="none" stroke="#424242" stroke-width="1.5"/>
        <circle cx="7" cy="7" r="2.5" fill="#424242"/>
      </g>
      <text x="36" y="23" class="text-primary" font-size="11" font-weight="500">00000000000024_client_reports.sql</text>
      <text x="36" y="38" class="text-tertiary" font-size="10">pending</text>
    </g>
  </g>

  <!-- ==================== EDGE FUNCTIONS SECTION ==================== -->
  <!-- Section header row -->
  <g transform="translate(12, 648)">
    <text x="0" y="16" class="text-secondary" font-size="12" font-weight="600" letter-spacing="0.3">EDGE FUNCTIONS</text>

    <!-- Count badge: 0/6 deployed -->
    <rect x="111" y="3" width="76" height="18" rx="9" fill="#E0E0E0"/>
    <text x="149" y="16" text-anchor="middle" class="text-secondary" font-size="10" font-weight="600">0/6 deployed</text>

    <!-- Deploy All button -->
    <rect x="223" y="1" width="88" height="26" rx="6" fill="#424242"/>
    <text x="267" y="19" text-anchor="middle" class="text-inverse" font-size="12" font-weight="500">Deploy All</text>
  </g>

  <!-- Edge function cards — each function is its own card row -->
  <g transform="translate(12, 676)">
    <rect width="351" height="516" rx="8" fill="#FFFFFF" stroke="#E5E4E0" stroke-width="1"/>

    <!-- Function 1: send-email — not deployed -->
    <g transform="translate(0, 0)">
      <!-- left border accent: not deployed -->
      <rect x="0" y="0" width="3" height="86" rx="0" fill="#424242"/>
      <text x="16" y="22" class="text-primary" font-size="13" font-weight="600">send-email</text>
      <!-- not deployed badge -->
      <rect x="212" y="10" width="89" height="18" rx="9" fill="#E0E0E0"/>
      <text x="256" y="23" text-anchor="middle" class="text-secondary" font-size="10">Not deployed</text>
      <!-- Last deployed -->
      <text x="16" y="42" class="text-tertiary" font-size="10" letter-spacing="0.3">LAST DEPLOYED</text>
      <text x="108" y="42" class="text-secondary" font-size="11">—</text>
      <!-- Needs secrets -->
      <text x="16" y="60" class="text-tertiary" font-size="10" letter-spacing="0.3">NEEDS</text>
      <text x="55" y="60" class="text-secondary" font-size="10">RESEND_API_KEY, AWS_SES_REGION</text>
      <!-- Deploy button -->
      <rect x="283" y="66" width="56" height="22" rx="5" fill="none" stroke="#424242" stroke-width="1.5"/>
      <text x="311" y="81" text-anchor="middle" class="text-primary" font-size="11" font-weight="500">Deploy</text>
      <line x1="16" y1="86" x2="335" y2="86" stroke="#E0E0E0" stroke-width="1"/>
    </g>

    <!-- Function 2: score-survey — not deployed -->
    <g transform="translate(0, 86)">
      <rect x="0" y="0" width="3" height="86" rx="0" fill="#424242"/>
      <text x="16" y="22" class="text-primary" font-size="13" font-weight="600">score-survey</text>
      <rect x="207" y="10" width="89" height="18" rx="9" fill="#E0E0E0"/>
      <text x="251" y="23" text-anchor="middle" class="text-secondary" font-size="10">Not deployed</text>
      <text x="16" y="42" class="text-tertiary" font-size="10" letter-spacing="0.3">LAST DEPLOYED</text>
      <text x="108" y="42" class="text-secondary" font-size="11">—</text>
      <text x="16" y="60" class="text-tertiary" font-size="10" letter-spacing="0.3">NEEDS</text>
      <text x="55" y="60" class="text-secondary" font-size="10">SUPABASE_SERVICE_ROLE_KEY</text>
      <rect x="283" y="66" width="56" height="22" rx="5" fill="none" stroke="#424242" stroke-width="1.5"/>
      <text x="311" y="81" text-anchor="middle" class="text-primary" font-size="11" font-weight="500">Deploy</text>
      <line x1="16" y1="86" x2="335" y2="86" stroke="#E0E0E0" stroke-width="1"/>
    </g>

    <!-- Function 3: generate-report — not deployed -->
    <g transform="translate(0, 172)">
      <rect x="0" y="0" width="3" height="86" rx="0" fill="#424242"/>
      <text x="16" y="22" class="text-primary" font-size="13" font-weight="600">generate-report</text>
      <rect x="197" y="10" width="89" height="18" rx="9" fill="#E0E0E0"/>
      <text x="241" y="23" text-anchor="middle" class="text-secondary" font-size="10">Not deployed</text>
      <text x="16" y="42" class="text-tertiary" font-size="10" letter-spacing="0.3">LAST DEPLOYED</text>
      <text x="108" y="42" class="text-secondary" font-size="11">—</text>
      <text x="16" y="60" class="text-tertiary" font-size="10" letter-spacing="0.3">NEEDS</text>
      <text x="55" y="60" class="text-secondary" font-size="10">AWS_S3_BUCKET, AWS_REGION</text>
      <rect x="283" y="66" width="56" height="22" rx="5" fill="none" stroke="#424242" stroke-width="1.5"/>
      <text x="311" y="81" text-anchor="middle" class="text-primary" font-size="11" font-weight="500">Deploy</text>
      <line x1="16" y1="86" x2="335" y2="86" stroke="#E0E0E0" stroke-width="1"/>
    </g>

    <!-- Function 4: embed-responses — not deployed -->
    <g transform="translate(0, 258)">
      <rect x="0" y="0" width="3" height="86" rx="0" fill="#424242"/>
      <text x="16" y="22" class="text-primary" font-size="13" font-weight="600">embed-responses</text>
      <rect x="192" y="10" width="89" height="18" rx="9" fill="#E0E0E0"/>
      <text x="236" y="23" text-anchor="middle" class="text-secondary" font-size="10">Not deployed</text>
      <text x="16" y="42" class="text-tertiary" font-size="10" letter-spacing="0.3">LAST DEPLOYED</text>
      <text x="108" y="42" class="text-secondary" font-size="11">—</text>
      <text x="16" y="60" class="text-tertiary" font-size="10" letter-spacing="0.3">NEEDS</text>
      <text x="55" y="60" class="text-secondary" font-size="10">OPENAI_API_KEY, SUPABASE_URL</text>
      <rect x="283" y="66" width="56" height="22" rx="5" fill="none" stroke="#424242" stroke-width="1.5"/>
      <text x="311" y="81" text-anchor="middle" class="text-primary" font-size="11" font-weight="500">Deploy</text>
      <line x1="16" y1="86" x2="335" y2="86" stroke="#E0E0E0" stroke-width="1"/>
    </g>

    <!-- Function 5: notify-complete — not deployed -->
    <g transform="translate(0, 344)">
      <rect x="0" y="0" width="3" height="86" rx="0" fill="#424242"/>
      <text x="16" y="22" class="text-primary" font-size="13" font-weight="600">notify-complete</text>
      <rect x="197" y="10" width="89" height="18" rx="9" fill="#E0E0E0"/>
      <text x="241" y="23" text-anchor="middle" class="text-secondary" font-size="10">Not deployed</text>
      <text x="16" y="42" class="text-tertiary" font-size="10" letter-spacing="0.3">LAST DEPLOYED</text>
      <text x="108" y="42" class="text-secondary" font-size="11">—</text>
      <text x="16" y="60" class="text-tertiary" font-size="10" letter-spacing="0.3">NEEDS</text>
      <text x="55" y="60" class="text-secondary" font-size="10">RESEND_API_KEY</text>
      <rect x="283" y="66" width="56" height="22" rx="5" fill="none" stroke="#424242" stroke-width="1.5"/>
      <text x="311" y="81" text-anchor="middle" class="text-primary" font-size="11" font-weight="500">Deploy</text>
      <line x1="16" y1="86" x2="335" y2="86" stroke="#E0E0E0" stroke-width="1"/>
    </g>

    <!-- Function 6: health-check — not deployed -->
    <g transform="translate(0, 430)">
      <rect x="0" y="0" width="3" height="86" rx="0" fill="#424242"/>
      <text x="16" y="22" class="text-primary" font-size="13" font-weight="600">health-check</text>
      <rect x="207" y="10" width="89" height="18" rx="9" fill="#E0E0E0"/>
      <text x="251" y="23" text-anchor="middle" class="text-secondary" font-size="10">Not deployed</text>
      <text x="16" y="42" class="text-tertiary" font-size="10" letter-spacing="0.3">LAST DEPLOYED</text>
      <text x="108" y="42" class="text-secondary" font-size="11">—</text>
      <text x="16" y="60" class="text-tertiary" font-size="10" letter-spacing="0.3">NEEDS</text>
      <text x="55" y="60" class="text-secondary" font-size="10">SUPABASE_URL, SUPABASE_ANON_KEY</text>
      <rect x="283" y="66" width="56" height="22" rx="5" fill="none" stroke="#424242" stroke-width="1.5"/>
      <text x="311" y="81" text-anchor="middle" class="text-primary" font-size="11" font-weight="500">Deploy</text>
    </g>
  </g>

  <!-- ==================== PGVECTOR EXTENSION CARD ==================== -->
  <!-- Section label -->
  <text x="12" y="1213" class="text-secondary" font-size="12" font-weight="600" letter-spacing="0.3">EXTENSIONS</text>

  <g transform="translate(12, 1221)">
    <rect width="351" height="88" rx="8" fill="#FFFFFF" stroke="#E5E4E0" stroke-width="1"/>

    <!-- Extension name + status row -->
    <text x="16" y="26" class="text-primary" font-size="13" font-weight="600">pgvector</text>

    <!-- Status badge: available -->
    <rect x="190" y="12" width="64" height="18" rx="9" fill="#E0E0E0"/>
    <text x="222" y="25" text-anchor="middle" class="text-secondary" font-size="10" font-weight="600">Available</text>

    <!-- Enable button -->
    <rect x="266" y="10" width="68" height="22" rx="5" fill="#424242"/>
    <text x="300" y="25" text-anchor="middle" class="text-inverse" font-size="11" font-weight="500">Enable</text>

    <!-- Divider -->
    <line x1="16" y1="38" x2="335" y2="38" stroke="#E0E0E0" stroke-width="1"/>

    <!-- Version -->
    <text x="16" y="56" class="text-tertiary" font-size="10" letter-spacing="0.3">VERSION</text>
    <text x="70" y="56" class="text-secondary" font-size="11">0.7.4</text>

    <!-- Dependency note -->
    <text x="16" y="76" class="text-tertiary" font-size="10">Required by migration 23 (pgvector_ivfflat)</text>
  </g>

  <!-- Bottom padding spacer row -->
  <rect x="0" y="1325" width="375" height="24" fill="#F5F5F5"/>

</svg>
